<svg width="520" height="255" viewBox="0 0 520 255" fill="none" xmlns="http://www.w3.org/2000/svg">
<rect x="0.5" y="0.5" width="519" height="254" rx="9.5" fill="white" stroke="#EAEDF2" stroke-dasharray="10 6"/>
<g opacity="0.23" clip-path="url(#clip0)">
<path d="M248.384 110.479V95.4233H246.078C244.373 95.4233 243 96.8176 243 98.521V118.876C243 120.582 244.373 121.961 246.078 121.961H266.434C268.138 121.961 269.538 120.582 269.538 118.876V116.653H254.558C251.173 116.654 248.384 113.865 248.384 110.479Z" fill="#005C9D"/>
<path d="M274.916 87.0381H254.559C252.855 87.0381 251.463 88.4186 251.463 90.1228V110.479C251.463 112.185 252.856 113.576 254.559 113.576H274.916C276.619 113.576 278.001 112.185 278.001 110.479V90.1235C278.001 88.4179 276.619 87.0381 274.916 87.0381ZM274.497 108.77C274.327 109.083 274.001 109.269 273.644 109.269H256.201C255.895 109.269 255.606 109.132 255.423 108.887C255.241 108.64 255.185 108.326 255.273 108.032L257.769 99.7782C257.933 99.2352 258.391 98.8339 258.952 98.7418C259.512 98.6504 260.076 98.8865 260.405 99.3487L263.894 104.25C264.364 104.91 265.274 105.074 265.941 104.619L269.154 102.437C269.484 102.213 269.89 102.131 270.281 102.21C270.673 102.287 271.017 102.52 271.235 102.855L274.455 107.783C274.65 108.083 274.666 108.457 274.497 108.77Z" fill="#005C9D"/>
</g>
<path d="M226.99 159L225.707 155.432H220.794L219.537 159H217.322L222.13 146.098H224.415L229.223 159H226.99ZM225.153 153.621L223.949 150.123C223.861 149.889 223.738 149.52 223.58 149.016C223.428 148.512 223.322 148.143 223.264 147.908C223.105 148.629 222.874 149.417 222.569 150.272L221.409 153.621H225.153ZM241.369 152.452C241.369 154.573 240.78 156.196 239.603 157.321C238.425 158.44 236.729 159 234.514 159H230.919V146.15H234.892C236.937 146.15 238.527 146.701 239.664 147.803C240.801 148.904 241.369 150.454 241.369 152.452ZM239.154 152.522C239.154 149.446 237.716 147.908 234.839 147.908H233.02V157.233H234.514C237.607 157.233 239.154 155.663 239.154 152.522ZM254.588 152.452C254.588 154.573 253.999 156.196 252.821 157.321C251.644 158.44 249.947 159 247.732 159H244.138V146.15H248.11C250.155 146.15 251.746 146.701 252.883 147.803C254.02 148.904 254.588 150.454 254.588 152.452ZM252.373 152.522C252.373 149.446 250.935 147.908 248.058 147.908H246.238V157.233H247.732C250.826 157.233 252.373 155.663 252.373 152.522ZM267.499 147.768C266.292 147.768 265.343 148.195 264.651 149.051C263.96 149.906 263.614 151.087 263.614 152.593C263.614 154.169 263.945 155.361 264.607 156.17C265.275 156.979 266.239 157.383 267.499 157.383C268.044 157.383 268.571 157.33 269.081 157.225C269.591 157.113 270.121 156.973 270.672 156.803V158.604C269.664 158.985 268.521 159.176 267.244 159.176C265.363 159.176 263.919 158.607 262.911 157.471C261.903 156.328 261.399 154.696 261.399 152.575C261.399 151.239 261.643 150.07 262.129 149.068C262.621 148.066 263.33 147.299 264.256 146.766C265.182 146.232 266.269 145.966 267.517 145.966C268.829 145.966 270.042 146.241 271.155 146.792L270.399 148.541C269.966 148.336 269.506 148.157 269.02 148.005C268.539 147.847 268.032 147.768 267.499 147.768ZM284.849 152.558C284.849 154.649 284.324 156.275 283.275 157.436C282.232 158.596 280.753 159.176 278.837 159.176C276.897 159.176 275.406 158.602 274.363 157.453C273.326 156.299 272.808 154.661 272.808 152.54C272.808 150.419 273.329 148.79 274.372 147.653C275.421 146.517 276.915 145.948 278.854 145.948C280.765 145.948 282.241 146.525 283.284 147.68C284.327 148.834 284.849 150.46 284.849 152.558ZM275.04 152.558C275.04 154.14 275.359 155.341 275.998 156.161C276.637 156.976 277.583 157.383 278.837 157.383C280.085 157.383 281.025 156.979 281.658 156.17C282.297 155.361 282.616 154.157 282.616 152.558C282.616 150.981 282.3 149.786 281.667 148.972C281.04 148.157 280.103 147.75 278.854 147.75C277.595 147.75 276.643 148.157 275.998 148.972C275.359 149.786 275.04 150.981 275.04 152.558ZM294.93 146.15H297.109L292.609 159H290.395L285.912 146.15H288.074L290.755 154.14C290.896 154.521 291.045 155.013 291.203 155.616C291.361 156.214 291.464 156.659 291.511 156.952C291.587 156.507 291.704 155.991 291.862 155.405C292.021 154.819 292.149 154.386 292.249 154.104L294.93 146.15ZM306.074 159H298.806V146.15H306.074V147.926H300.906V151.424H305.749V153.182H300.906V157.216H306.074V159ZM310.961 152.127H312.42C313.398 152.127 314.107 151.945 314.547 151.582C314.986 151.219 315.206 150.68 315.206 149.965C315.206 149.238 314.969 148.717 314.494 148.4C314.02 148.084 313.305 147.926 312.35 147.926H310.961V152.127ZM310.961 153.867V159H308.86V146.15H312.49C314.148 146.15 315.376 146.461 316.173 147.082C316.97 147.703 317.368 148.641 317.368 149.895C317.368 151.494 316.536 152.634 314.872 153.313L318.502 159H316.111L313.035 153.867H310.961Z" fill="#005C9D"/>
<path d="M207.458 151.417H202.583V146.542C202.583 146.242 202.341 146 202.042 146H200.958C200.659 146 200.417 146.242 200.417 146.542V151.417H195.542C195.242 151.417 195 151.659 195 151.958V153.042C195 153.341 195.242 153.583 195.542 153.583H200.417V158.458C200.417 158.758 200.659 159 200.958 159H202.042C202.341 159 202.583 158.758 202.583 158.458V153.583H207.458C207.758 153.583 208 153.341 208 153.042V151.958C208 151.659 207.758 151.417 207.458 151.417Z" fill="#005C9D"/>
<defs>
<clipPath id="clip0">
<rect width="35" height="35" fill="white" transform="translate(243 87)"/>
</clipPath>
</defs>
</svg>
