<svg width="14" height="14" viewBox="0 0 14 14" fill="none" xmlns="http://www.w3.org/2000/svg">
<path d="M13.4167 5.83333H8.16667V0.583333C8.16667 0.261042 7.90562 0 7.58333 0H6.41667C6.09437 0 5.83333 0.261042 5.83333 0.583333V5.83333H0.583333C0.261042 5.83333 0 6.09437 0 6.41667V7.58333C0 7.90562 0.261042 8.16667 0.583333 8.16667H5.83333V13.4167C5.83333 13.739 6.09437 14 6.41667 14H7.58333C7.90562 14 8.16667 13.739 8.16667 13.4167V8.16667H13.4167C13.739 8.16667 14 7.90562 14 7.58333V6.41667C14 6.09437 13.739 5.83333 13.4167 5.83333Z" fill="#FFA901"/>
</svg>
