<svg width="14" height="15" viewBox="0 0 14 15" fill="none" xmlns="http://www.w3.org/2000/svg">
<path d="M8.04754 13.1728L7.35387 13.8777C7.06015 14.1762 6.5852 14.1762 6.29461 13.8777L0.220289 7.70824C-0.0734285 7.40977 -0.0734285 6.92713 0.220289 6.63183L6.29461 0.45919C6.58833 0.160718 7.06328 0.160718 7.35387 0.45919L8.04754 1.16409C8.34438 1.46574 8.33813 1.9579 8.03504 2.25319L4.26984 5.89836L13.2501 5.89836C13.6657 5.89836 14 6.23811 14 6.66041L14 7.67649C14 8.09879 13.6657 8.43854 13.2501 8.43854L4.26984 8.43854L8.03504 12.0837C8.34126 12.379 8.34751 12.8712 8.04754 13.1728Z" fill="#200F32"/>
</svg>
