<svg width="110" height="23" viewBox="0 0 110 23" fill="none" xmlns="http://www.w3.org/2000/svg">
<path fill-rule="evenodd" clip-rule="evenodd" d="M8.45586 14.2185C8.25456 14.4202 7.98615 14.4874 7.71775 14.4874C7.44935 14.4874 7.18095 14.3529 7.11385 14.2857L0.00119019 7.15966L6.84545 0.302521C7.24805 -0.10084 7.85197 -0.10084 8.25457 0.302521C8.65717 0.705882 8.65717 1.31092 8.25457 1.71429L2.81942 7.15966L8.45586 12.8067C8.85847 13.2101 8.85847 13.8151 8.45586 14.2185ZM15.0734 7.5936C14.5241 7.53626 14.1253 7.04449 14.1826 6.49519C14.24 5.94589 14.7317 5.54707 15.281 5.60441C16.8735 5.77063 18.5271 6.15796 20.4089 6.86364L20.415 6.86594C21.7491 7.37604 22.9487 7.99069 24.0371 8.67448C24.5047 8.96828 24.6457 9.58556 24.3519 10.0532C24.0581 10.5209 23.4408 10.6618 22.9731 10.368C21.99 9.75035 20.908 9.19587 19.7034 8.73508C17.9646 8.0833 16.4781 7.74022 15.0734 7.5936ZM86.9276 8.15421C88.1556 7.69139 89.5022 7.49612 91.0269 7.69139C93.3239 8.00387 95.0361 8.75083 96.5284 9.65018C97.0014 9.93525 97.616 9.78288 97.9011 9.30986C98.1861 8.83684 98.0338 8.22228 97.5608 7.9372C95.8833 6.92628 93.9128 6.06495 91.2924 5.70908L91.2852 5.70811L91.2852 5.70814C89.4246 5.46915 87.7475 5.70783 86.2222 6.28272C85.7054 6.4775 85.4444 7.05435 85.6392 7.57115C85.834 8.08795 86.4108 8.34899 86.9276 8.15421ZM10.0347 5.72132C10.5832 5.65742 11.0797 6.05034 11.1436 6.59891C11.2075 7.14749 10.8146 7.64399 10.266 7.70789C9.38548 7.81045 8.48484 7.93999 7.50188 8.08138L7.50158 8.08143C6.81204 8.18061 6.08201 8.28561 5.28998 8.39122C4.74254 8.46421 4.23958 8.07959 4.16659 7.53215C4.0936 6.98471 4.47821 6.48175 5.02565 6.40876C5.76741 6.30986 6.48232 6.20718 7.17041 6.10835L7.17071 6.10831L7.17078 6.1083C8.18359 5.96283 9.13822 5.82572 10.0347 5.72132ZM51.9724 8.09633C50.1168 7.93729 48.7355 9.15399 47.3458 11.4096C47.0561 11.8798 46.4401 12.0262 45.9699 11.7365C45.4997 11.4468 45.3534 10.8308 45.643 10.3606C47.0876 8.01584 49.0528 5.84097 52.1388 6.10327C53.6709 6.22222 54.963 6.91024 56.0818 7.85382C56.504 8.20987 56.5577 8.84076 56.2016 9.26295C55.8455 9.68514 55.2147 9.73875 54.7925 9.3827C53.8857 8.61802 52.9759 8.17356 51.9811 8.09704L51.9724 8.09633ZM81.9916 8.93035C82.4065 8.56582 83.0384 8.60666 83.4029 9.02155C83.7674 9.43645 83.7266 10.0683 83.3117 10.4328C81.7309 11.8217 80.3479 13.507 78.9486 15.2123C78.3791 15.9063 77.8069 16.6036 77.2175 17.2855C76.8564 17.7034 76.2249 17.7494 75.8071 17.3883C75.3892 17.0272 75.3432 16.3957 75.7043 15.9778C76.2203 15.3808 76.7492 14.7363 77.294 14.0725L77.294 14.0725C78.7318 12.3206 80.2801 10.4341 81.9916 8.93035ZM57.1525 12.0134C56.8212 11.5715 56.9108 10.9447 57.3527 10.6134C57.7946 10.2821 58.4213 10.3718 58.7526 10.8136C59.2798 11.5168 59.8043 12.2687 60.3232 13.0127L60.3234 13.0129C60.5301 13.3093 60.736 13.6044 60.9407 13.8947C61.6702 14.9286 62.4021 15.9247 63.1823 16.8156C63.5461 17.2311 63.5043 17.8629 63.0888 18.2267C62.6733 18.5906 62.0415 18.5487 61.6777 18.1332C60.8258 17.1604 60.0448 16.0942 59.3065 15.0476C59.0874 14.7371 58.8733 14.4301 58.6621 14.1273C58.1514 13.3951 57.6579 12.6875 57.1525 12.0134ZM25.8972 12.6019C25.4882 12.2307 25.4575 11.5983 25.8287 11.1893C26.1998 10.7803 26.8322 10.7496 27.2412 11.1208C29.0117 12.7274 30.4442 14.4743 31.6919 15.9958L31.6927 15.9968C31.9656 16.3295 32.2296 16.6515 32.4864 16.9589C32.8405 17.3827 32.784 18.0133 32.3602 18.3674C31.9364 18.7215 31.3057 18.665 30.9516 18.2412C30.6743 17.9093 30.396 17.5702 30.1138 17.2263C28.8692 15.7098 27.5479 14.0998 25.8972 12.6019ZM101.749 13.1896C101.271 12.9132 101.107 12.3015 101.384 11.8234C101.66 11.3452 102.272 11.1816 102.75 11.458C104.255 12.3278 105.923 12.9306 108.245 12.9001C108.797 12.8928 109.25 13.3346 109.258 13.8868C109.265 14.4391 108.823 14.8926 108.271 14.8999C105.529 14.936 103.509 14.207 101.749 13.1896ZM42.2837 16.6801C42.5574 16.2004 43.1681 16.0334 43.6478 16.307C44.1275 16.5807 44.2946 17.1914 44.0209 17.6711C42.668 20.0428 40.8792 22.4202 38.0228 22.5979C36.363 22.7113 34.9914 22.0995 33.7835 21.1527C33.3488 20.812 33.2726 20.1835 33.6133 19.7488C33.954 19.3141 34.5826 19.2379 35.0172 19.5786C35.9635 20.3203 36.8609 20.6733 37.889 20.6024L37.8964 20.6019C39.5995 20.4971 40.9185 19.0733 42.2837 16.6801ZM72.5325 19.0395C72.9829 18.7199 73.6071 18.8259 73.9268 19.2763C74.2464 19.7267 74.1404 20.3509 73.69 20.6705C72.2287 21.7076 70.5776 22.361 68.6717 22.1963L68.6706 22.1962C67.1725 22.0651 65.8607 21.5566 64.6969 20.8161C64.231 20.5196 64.0936 19.9015 64.3901 19.4356C64.6866 18.9696 65.3047 18.8322 65.7706 19.1287C66.702 19.7214 67.7093 20.1044 68.8447 20.2038C70.1463 20.316 71.3341 19.8901 72.5325 19.0395Z" fill="#FDC635"/>
</svg>
