<svg width="418" height="24" viewBox="0 0 418 24" fill="none" xmlns="http://www.w3.org/2000/svg">
<path d="M1.28539 8.06719C0.59985 8.06719 0 7.66383 0 7.05878C0 6.52097 0.514158 6.05038 1.1997 6.05038C2.99925 5.98315 4.71311 5.98315 6.42697 5.98315C7.19821 5.98315 7.71236 6.45374 7.71236 7.05878C7.71236 7.5966 7.11251 8.06719 6.42697 8.06719C4.7988 7.99996 3.08495 7.99996 1.28539 8.06719Z" fill="#FDC635"/>
<path d="M70.7551 24C69.0399 23.9342 67.3247 23.8025 65.6095 23.5391C63.8943 23.2757 62.0933 22.9464 60.3781 22.5513C59.692 22.4196 59.2632 21.827 59.5205 21.3002C59.692 20.7734 60.4639 20.4441 61.15 20.6417C62.7794 20.9709 64.4946 21.3002 66.1241 21.5636C67.7535 21.827 69.2972 21.9587 70.8409 22.0245C71.5269 22.0245 72.1273 22.4855 72.0415 23.0781C72.0415 23.6049 71.4412 24 70.7551 24ZM77.5302 23.7366C76.9298 23.7366 76.3295 23.4074 76.2438 22.8806C76.158 22.3538 76.5868 21.827 77.2729 21.7611C80.3602 21.366 83.3619 20.5758 86.6207 19.4564C87.2211 19.193 87.9929 19.4564 88.336 19.9173C88.679 20.3783 88.3359 20.9709 87.7356 21.2343C84.3052 22.4855 81.0463 23.3415 77.7017 23.7366C77.7017 23.7366 77.6159 23.7366 77.5302 23.7366ZM201.797 22.3538C201.111 22.3538 200.51 21.8928 200.51 21.366C200.51 20.8392 201.025 20.3783 201.797 20.3783C202.311 20.3783 202.826 20.3783 203.426 20.3124C206.342 20.1807 209.086 19.9173 211.659 19.4564C212.345 19.3247 213.031 19.6539 213.203 20.1807C213.374 20.7075 212.946 21.2343 212.259 21.366C209.515 21.827 206.599 22.1562 203.512 22.2221C202.912 22.2879 202.397 22.3538 201.797 22.3538ZM195.022 22.0904C194.936 22.0904 194.936 22.0904 194.85 22.0904C191.334 21.7611 187.989 21.1026 184.645 20.1807C183.959 19.9832 183.616 19.3905 183.873 18.9296C184.13 18.4028 184.902 18.1394 185.502 18.3369C188.59 19.2588 191.763 19.8515 195.107 20.1149C195.794 20.1807 196.308 20.6417 196.222 21.2343C196.222 21.6953 195.622 22.0904 195.022 22.0904ZM54.2891 20.9051C54.1176 20.9051 53.9461 20.9051 53.7746 20.8392C50.3442 19.7856 47.2568 18.5345 44.4267 17.4151C43.8264 17.1517 43.5691 16.559 43.9122 16.0981C44.2552 15.6371 45.027 15.4396 45.6274 15.703C48.3717 16.8224 51.4591 18.0077 54.7179 19.0613C55.404 19.2588 55.6613 19.8515 55.404 20.3783C55.3183 20.6417 54.8037 20.9051 54.2891 20.9051ZM218.434 19.8515C217.92 19.8515 217.405 19.5881 217.234 19.2588C216.976 18.732 217.319 18.2052 217.92 17.9419C220.75 17.0858 223.494 15.9005 226.667 14.3201C227.268 13.9909 228.039 14.1226 228.468 14.5835C228.811 15.0445 228.725 15.6371 228.125 15.9664C224.78 17.6126 221.865 18.7979 218.863 19.7198C218.691 19.8515 218.52 19.8515 218.434 19.8515ZM318.859 19.7856C316.287 19.7856 313.8 19.6539 311.398 19.3905C310.712 19.3247 310.198 18.7979 310.283 18.2711C310.369 17.7443 311.055 17.3492 311.741 17.4151C313.971 17.6785 316.372 17.8102 318.774 17.8102C319.546 17.8102 320.317 17.8102 321.089 17.7443H321.69C322.376 17.7443 322.976 18.1394 323.062 18.6662C323.147 19.193 322.547 19.6539 321.861 19.7198H321.261C320.489 19.7856 319.631 19.7856 318.859 19.7856ZM328.55 19.1271C327.95 19.1271 327.435 18.7979 327.264 18.3369C327.178 17.8102 327.607 17.2834 328.293 17.2175C331.38 16.7566 334.382 16.1639 337.898 15.1103C338.584 14.9128 339.27 15.1762 339.528 15.703C339.785 16.2298 339.442 16.7566 338.756 16.9541C335.068 18.0077 331.981 18.6662 328.722 19.1271C328.722 19.1271 328.636 19.1271 328.55 19.1271ZM93.2243 18.7979C92.7955 18.7979 92.3667 18.6662 92.1094 18.3369C91.7664 17.876 91.9379 17.2834 92.5382 16.9541C95.0252 15.7688 97.5123 14.4518 100.085 13.069L101.028 12.608C101.629 12.2788 102.401 12.4105 102.829 12.8714C103.258 13.3324 103.087 13.925 102.486 14.2543L101.543 14.7152C98.9702 16.0981 96.4832 17.4151 93.9104 18.6662C93.6531 18.732 93.3958 18.7979 93.2243 18.7979ZM305.052 18.1394C304.881 18.1394 304.795 18.1394 304.623 18.0736C301.536 17.2834 298.534 16.2298 295.19 14.6494C294.589 14.386 294.332 13.7933 294.761 13.2665C295.104 12.8056 295.876 12.608 296.562 12.9373C299.821 14.4518 302.651 15.4396 305.567 16.1639C306.253 16.3615 306.596 16.8883 306.338 17.4151C306.081 17.876 305.567 18.1394 305.052 18.1394ZM178.899 18.0077C178.727 18.0077 178.47 17.9419 178.298 17.876C175.125 16.559 172.209 15.0445 169.551 13.6616C168.951 13.3324 168.779 12.7397 169.208 12.2788C169.637 11.8179 170.408 11.6862 171.009 12.0154C173.667 13.3982 176.497 14.8469 179.585 16.1639C180.185 16.4273 180.442 17.02 180.099 17.4809C179.842 17.8102 179.413 18.0077 178.899 18.0077ZM39.1096 15.0445C38.9381 15.0445 38.6808 14.9786 38.5093 14.9128C36.108 13.9909 32.9348 12.7397 29.3329 11.6862C28.6468 11.4886 28.3038 10.896 28.5611 10.435C28.8184 9.90822 29.5902 9.64482 30.1905 9.84237C33.8782 10.9618 37.1371 12.213 39.6241 13.2007C40.2245 13.4641 40.4817 14.0567 40.1387 14.5177C39.9672 14.9128 39.5384 15.0445 39.1096 15.0445ZM344.673 15.0445C344.159 15.0445 343.73 14.8469 343.473 14.4518C343.215 13.925 343.473 13.3982 344.159 13.1348C346.989 12.213 350.076 11.2252 353.764 10.2375C354.45 10.0399 355.136 10.3033 355.393 10.8301C355.651 11.3569 355.308 11.8837 354.621 12.0813C351.02 13.0031 347.932 14.0567 345.188 14.9128C345.016 15.0445 344.845 15.0445 344.673 15.0445ZM233.013 13.2665C232.585 13.2665 232.242 13.1348 231.984 12.8714C231.556 12.4105 231.727 11.8179 232.327 11.4886C235.157 9.97407 237.988 8.52538 241.075 7.2084C241.675 6.945 242.447 7.14255 242.79 7.60349C243.133 8.06444 242.876 8.65708 242.276 8.92048C239.274 10.1716 236.53 11.5545 233.785 13.069C233.528 13.2007 233.271 13.2665 233.013 13.2665ZM289.958 12.0813C289.701 12.0813 289.444 12.0154 289.272 11.9496C286.614 10.6326 283.698 9.24973 280.525 8.13029C279.839 7.93274 279.581 7.34009 279.924 6.8133C280.182 6.2865 280.953 6.08895 281.639 6.35235C284.898 7.53764 287.9 8.92048 290.644 10.3033C291.245 10.5667 291.416 11.2252 291.073 11.6862C290.816 11.9496 290.387 12.0813 289.958 12.0813ZM107.289 11.4228C106.86 11.4228 106.431 11.2911 106.174 10.9618C105.745 10.5009 105.917 9.90822 106.517 9.57898C109.862 7.93274 112.692 6.6816 115.522 5.62801C116.208 5.36461 116.894 5.62801 117.237 6.08896C117.58 6.5499 117.237 7.14255 116.637 7.40594C113.892 8.39369 111.148 9.57897 107.889 11.2252C107.804 11.3569 107.546 11.4228 107.289 11.4228ZM164.663 10.896C164.405 10.896 164.148 10.8301 163.976 10.7643C160.632 9.11803 157.973 7.93274 155.229 6.945C154.543 6.74745 154.286 6.1548 154.629 5.62801C154.972 5.10121 155.658 4.90367 156.344 5.16706C159.174 6.1548 161.918 7.3401 165.434 9.11803C166.035 9.44728 166.206 10.0399 165.777 10.5009C165.434 10.7643 165.091 10.896 164.663 10.896ZM360.71 10.6984C360.11 10.6984 359.596 10.435 359.51 9.97407C359.338 9.44728 359.767 8.92048 360.453 8.78878C363.712 8.13029 366.971 7.53764 370.573 7.14255C371.259 7.0767 371.945 7.40594 372.031 7.93274C372.117 8.45954 371.688 8.98633 371.002 9.05218C367.571 9.51313 364.312 10.0399 361.139 10.6984C360.882 10.6326 360.796 10.6984 360.71 10.6984ZM23.3297 10.1058C23.2439 10.1058 23.0724 10.1058 22.9867 10.0399C19.8135 9.38143 16.5546 8.92048 13.1242 8.59123C12.4382 8.52538 11.9236 8.06444 12.0094 7.47179C12.0951 6.945 12.6954 6.5499 13.4673 6.61575C17.0692 6.945 20.4139 7.40594 23.6727 8.13029C24.3588 8.26199 24.7876 8.78878 24.5303 9.31558C24.4446 9.84237 23.93 10.1058 23.3297 10.1058ZM377.434 8.32784C376.748 8.32784 376.233 7.93274 376.147 7.47179C376.061 6.945 376.576 6.4182 377.262 6.35235C380.264 6.08895 383.78 5.95726 387.553 5.82556C388.325 5.82556 388.84 6.22065 388.84 6.8133C388.84 7.34009 388.325 7.80104 387.553 7.80104C383.866 7.86689 380.435 8.06444 377.434 8.32784C377.519 8.32784 377.434 8.32784 377.434 8.32784ZM404.705 7.93274C404.62 7.93274 404.62 7.93274 404.705 7.93274C401.189 7.80104 397.759 7.73519 394.5 7.73519C393.814 7.73519 393.214 7.27425 393.214 6.74745C393.214 6.22065 393.814 5.75971 394.5 5.75971C397.845 5.75971 401.275 5.82556 404.791 5.95726C405.477 5.95726 406.078 6.4182 405.992 7.01085C405.906 7.47179 405.391 7.93274 404.705 7.93274ZM247.85 7.01085C247.335 7.01085 246.821 6.74745 246.649 6.35235C246.392 5.82556 246.821 5.29876 247.421 5.10121C250.68 4.24517 254.025 3.71838 257.712 3.45498C258.398 3.38913 259.085 3.78423 259.085 4.37687C259.085 4.96952 258.656 5.43046 257.884 5.43046C254.454 5.69386 251.28 6.1548 248.193 6.945C248.193 6.945 248.021 7.01085 247.85 7.01085ZM274.693 6.4182C274.607 6.4182 274.436 6.4182 274.35 6.35235C271.262 5.69386 268.089 5.29876 264.573 5.23291C263.887 5.23291 263.287 4.77197 263.373 4.17932C263.373 3.65253 263.973 3.19158 264.745 3.25743C268.432 3.38913 271.863 3.78423 275.122 4.44272C275.808 4.57442 276.237 5.10121 275.979 5.62801C275.808 6.1548 275.293 6.4182 274.693 6.4182ZM122.554 5.62801C122.04 5.62801 121.525 5.36461 121.354 4.96952C121.096 4.44272 121.525 3.91592 122.211 3.71838C125.556 2.86233 128.986 2.40139 132.502 2.13799C133.189 2.07214 133.875 2.46724 133.875 3.05988C133.875 3.65253 133.446 4.11347 132.674 4.11347C129.329 4.31102 126.156 4.83782 122.983 5.62801C122.812 5.62801 122.64 5.62801 122.554 5.62801ZM149.397 5.23291C149.311 5.23291 149.14 5.23291 149.054 5.16706C145.881 4.50857 142.708 4.11347 139.278 3.98177C138.591 3.98177 137.991 3.52083 138.077 2.92818C138.077 2.40139 138.763 1.94044 139.449 2.00629C143.051 2.13799 146.481 2.53309 149.826 3.25743C150.512 3.38913 150.941 3.98177 150.684 4.50857C150.426 4.96952 149.912 5.23291 149.397 5.23291Z" fill="#FDC635"/>
<path d="M414.31 8.2688C414.242 8.2688 414.242 8.2688 414.175 8.2688C413.102 8.13435 411.693 7.99989 410.216 7.86544C409.68 7.79821 409.277 7.32762 409.277 6.78981C409.344 6.25199 409.814 5.84863 410.351 5.84863C411.894 5.98309 413.303 6.11754 414.377 6.25199C414.913 6.31922 415.316 6.78981 415.249 7.39485C415.249 7.93267 414.779 8.2688 414.31 8.2688Z" fill="#FDC635"/>
<path d="M410.149 14.5882C409.881 14.5882 409.612 14.521 409.411 14.3193C409.008 13.916 409.008 13.3109 409.411 12.9076L415.048 7.26049L409.612 1.81512C409.21 1.41175 409.21 0.806713 409.612 0.403351C410.015 -1.02669e-05 410.619 -1.02669e-05 411.021 0.403351L417.866 7.26049L410.753 14.3865C410.686 14.4538 410.418 14.5882 410.149 14.5882Z" fill="#FDC635"/>
<path d="M203.981 6.16327C205.032 6.16327 205.885 5.23129 205.885 4.08163C205.885 2.93198 205.032 2 203.981 2C202.929 2 202.077 2.93198 202.077 4.08163C202.077 5.23129 202.929 6.16327 203.981 6.16327Z" fill="#FDC635"/>
<path d="M208.095 8.78314C206.103 8.74473 204.257 6.78586 204.257 6.78586C204.04 6.55541 203.714 6.44018 203.424 6.55541C201.94 6.97791 200.491 9.78178 200.093 10.6268C199.876 11.0877 200.057 11.6254 200.455 11.8559C200.564 11.9327 200.708 11.9711 200.853 11.9711C201.179 11.9711 201.469 11.7791 201.614 11.4718C201.867 10.8957 202.193 10.3195 202.519 9.78178V13.3923L200.491 17.6557C200.274 18.1166 200.455 18.6543 200.853 18.8848C200.962 18.9616 201.107 19 201.252 19C201.577 19 201.867 18.808 202.012 18.5007L204.402 13.5075L206.103 14.8518V17.8093C206.103 18.3086 206.502 18.7311 206.972 18.7311C207.443 18.7311 207.841 18.3086 207.841 17.8093V14.3909C207.841 14.122 207.733 13.8532 207.515 13.6611L205.741 12.24V10.0506C206.465 10.3963 207.262 10.6652 208.131 10.6652C208.602 10.6652 208.964 10.2811 209 9.78178C208.928 9.20565 208.566 8.82155 208.095 8.78314Z" fill="#FDC635"/>
</svg>
