<svg width="71" height="170" viewBox="0 0 71 170" fill="none" xmlns="http://www.w3.org/2000/svg">
<path fill-rule="evenodd" clip-rule="evenodd" d="M8.45467 14.2185C8.25337 14.4202 7.98496 14.4874 7.71656 14.4874C7.44816 14.4874 7.17976 14.3529 7.11266 14.2857L6.26119e-07 7.15967L6.84426 0.302527C7.24686 -0.100835 7.85077 -0.100835 8.25338 0.302526C8.65598 0.705888 8.65598 1.31093 8.25338 1.71429L2.81823 7.15967L8.45467 12.8067C8.85727 13.2101 8.85727 13.8151 8.45467 14.2185ZM54.9714 5.09636C52.9813 4.92578 51.3842 5.70816 49.8261 6.98347C49.3988 7.33329 48.7687 7.27041 48.4189 6.84304C48.0691 6.41567 48.132 5.78563 48.5594 5.43582C50.3314 3.98535 52.4309 2.87267 55.1378 3.10329C57.6594 3.29823 59.3166 4.27842 60.7146 5.45086C61.1377 5.80576 61.193 6.43651 60.8382 6.85967C60.4833 7.28283 59.8525 7.33816 59.4293 6.98326C58.2508 5.99481 56.9747 5.2505 54.9801 5.09707L54.9801 5.0971L54.9714 5.09636ZM28.2016 7.66906C26.6283 6.4806 25.009 5.7166 23.0999 5.79908L23.0784 5.80001L23.0568 5.80001C20.5472 5.80001 18.9924 6.15349 17.4756 6.5805C16.944 6.73017 16.3917 6.42053 16.242 5.88892C16.0924 5.3573 16.402 4.80501 16.9336 4.65534C18.5659 4.19581 20.3042 3.80204 23.0357 3.80002C25.5817 3.69654 27.6466 4.74331 29.4071 6.07321C29.8478 6.40611 29.9352 7.03321 29.6023 7.47389C29.2694 7.91458 28.6423 8.00195 28.2016 7.66906ZM11.3235 5.9005C11.8728 5.8427 12.3649 6.2411 12.4227 6.79035C12.4805 7.3396 12.0821 7.83171 11.5328 7.88951C9.93055 8.05813 7.9804 8.11927 5.45238 7.99889C4.90072 7.97263 4.4748 7.50412 4.50107 6.95246C4.52734 6.4008 4.99584 5.97489 5.5475 6.00116C7.99471 6.11768 9.84108 6.0565 11.3235 5.9005ZM63.7388 10.6584C63.2732 10.3614 63.1366 9.74312 63.4336 9.27751C63.7306 8.8119 64.3489 8.67523 64.8145 8.97226C65.9904 9.72245 67.4636 10.318 69.5871 10.5038C70.1373 10.552 70.5443 11.037 70.4961 11.5872C70.448 12.1374 69.963 12.5444 69.4128 12.4962C66.9667 12.2822 65.1846 11.5807 63.7388 10.6584ZM43.9158 9.9273C44.3219 9.55295 44.9545 9.57866 45.3289 9.98472C45.7032 10.3908 45.6775 11.0234 45.2714 11.3978C43.5923 12.9457 41.624 14.3392 39.065 14.4979C36.5539 14.6696 34.5357 13.2993 32.7964 11.7877C32.3796 11.4254 32.3353 10.7938 32.6976 10.3769C33.0599 9.96007 33.6915 9.91583 34.1084 10.2781C35.7873 11.7372 37.2692 12.617 38.9311 12.5024L38.9311 12.5024L38.9385 12.5019C40.7992 12.3874 42.3389 11.381 43.9158 9.9273Z" fill="#FDC635"/>
<path fill-rule="evenodd" clip-rule="evenodd" d="M8.45467 92.2185C8.25337 92.4202 7.98496 92.4874 7.71656 92.4874C7.44816 92.4874 7.17976 92.3529 7.11266 92.2857L6.26119e-07 85.1597L6.84426 78.3025C7.24686 77.8992 7.85077 77.8992 8.25338 78.3025C8.65598 78.7059 8.65598 79.3109 8.25338 79.7143L2.81823 85.1597L8.45467 90.8067C8.85727 91.2101 8.85727 91.8151 8.45467 92.2185ZM54.9714 83.0964C52.9813 82.9258 51.3842 83.7082 49.8261 84.9835C49.3988 85.3333 48.7687 85.2704 48.4189 84.843C48.0691 84.4157 48.132 83.7856 48.5594 83.4358C50.3314 81.9854 52.4309 80.8727 55.1378 81.1033C57.6594 81.2982 59.3166 82.2784 60.7146 83.4509C61.1377 83.8058 61.193 84.4365 60.8382 84.8597C60.4833 85.2828 59.8525 85.3382 59.4293 84.9833C58.2508 83.9948 56.9747 83.2505 54.9801 83.0971L54.9801 83.0971L54.9714 83.0964ZM28.2016 85.6691C26.6283 84.4806 25.009 83.7166 23.0999 83.7991L23.0784 83.8L23.0568 83.8C20.5472 83.8 18.9924 84.1535 17.4756 84.5805C16.944 84.7302 16.3917 84.4205 16.242 83.8889C16.0924 83.3573 16.402 82.805 16.9336 82.6553C18.5659 82.1958 20.3042 81.802 23.0357 81.8C25.5817 81.6965 27.6466 82.7433 29.4071 84.0732C29.8478 84.4061 29.9352 85.0332 29.6023 85.4739C29.2694 85.9146 28.6423 86.002 28.2016 85.6691ZM11.3235 83.9005C11.8728 83.8427 12.3649 84.2411 12.4227 84.7903C12.4805 85.3396 12.0821 85.8317 11.5328 85.8895C9.93055 86.0581 7.9804 86.1193 5.45238 85.9989C4.90072 85.9726 4.4748 85.5041 4.50107 84.9525C4.52734 84.4008 4.99584 83.9749 5.5475 84.0012C7.99471 84.1177 9.84108 84.0565 11.3235 83.9005ZM63.7388 88.6584C63.2732 88.3614 63.1366 87.7431 63.4336 87.2775C63.7306 86.8119 64.3489 86.6752 64.8145 86.9723C65.9904 87.7224 67.4636 88.318 69.5871 88.5038C70.1373 88.552 70.5443 89.037 70.4961 89.5872C70.448 90.1374 69.963 90.5444 69.4128 90.4962C66.9667 90.2822 65.1846 89.5807 63.7388 88.6584ZM43.9158 87.9273C44.3219 87.553 44.9545 87.5787 45.3289 87.9847C45.7032 88.3908 45.6775 89.0234 45.2714 89.3978C43.5923 90.9457 41.624 92.3392 39.065 92.4979C36.5539 92.6696 34.5357 91.2993 32.7964 89.7877C32.3796 89.4254 32.3353 88.7938 32.6976 88.3769C33.0599 87.9601 33.6915 87.9158 34.1084 88.2781C35.7873 89.7372 37.2692 90.617 38.9311 90.5024L38.9311 90.5024L38.9385 90.5019C40.7992 90.3874 42.3389 89.381 43.9158 87.9273Z" fill="#FDC635"/>
<path fill-rule="evenodd" clip-rule="evenodd" d="M8.45467 169.218C8.25337 169.42 7.98496 169.487 7.71656 169.487C7.44816 169.487 7.17976 169.353 7.11266 169.286L6.26119e-07 162.16L6.84426 155.303C7.24686 154.899 7.85077 154.899 8.25338 155.303C8.65598 155.706 8.65598 156.311 8.25338 156.714L2.81823 162.16L8.45467 167.807C8.85727 168.21 8.85727 168.815 8.45467 169.218ZM54.9714 160.096C52.9813 159.926 51.3842 160.708 49.8261 161.983C49.3988 162.333 48.7687 162.27 48.4189 161.843C48.0691 161.416 48.132 160.786 48.5594 160.436C50.3314 158.985 52.4309 157.873 55.1378 158.103C57.6594 158.298 59.3166 159.278 60.7146 160.451C61.1377 160.806 61.193 161.437 60.8382 161.86C60.4833 162.283 59.8525 162.338 59.4293 161.983C58.2508 160.995 56.9747 160.25 54.9801 160.097L54.9801 160.097L54.9714 160.096ZM28.2016 162.669C26.6283 161.481 25.009 160.717 23.0999 160.799L23.0784 160.8L23.0568 160.8C20.5472 160.8 18.9924 161.153 17.4756 161.581C16.944 161.73 16.3917 161.421 16.242 160.889C16.0924 160.357 16.402 159.805 16.9336 159.655C18.5659 159.196 20.3042 158.802 23.0357 158.8C25.5817 158.697 27.6466 159.743 29.4071 161.073C29.8478 161.406 29.9352 162.033 29.6023 162.474C29.2694 162.915 28.6423 163.002 28.2016 162.669ZM11.3235 160.9C11.8728 160.843 12.3649 161.241 12.4227 161.79C12.4805 162.34 12.0821 162.832 11.5328 162.89C9.93055 163.058 7.9804 163.119 5.45238 162.999C4.90072 162.973 4.4748 162.504 4.50107 161.952C4.52734 161.401 4.99584 160.975 5.5475 161.001C7.99471 161.118 9.84108 161.057 11.3235 160.9ZM63.7388 165.658C63.2732 165.361 63.1366 164.743 63.4336 164.278C63.7306 163.812 64.3489 163.675 64.8145 163.972C65.9904 164.722 67.4636 165.318 69.5871 165.504C70.1373 165.552 70.5443 166.037 70.4961 166.587C70.448 167.137 69.963 167.544 69.4128 167.496C66.9667 167.282 65.1846 166.581 63.7388 165.658ZM43.9158 164.927C44.3219 164.553 44.9545 164.579 45.3289 164.985C45.7032 165.391 45.6775 166.023 45.2714 166.398C43.5923 167.946 41.624 169.339 39.065 169.498C36.5539 169.67 34.5357 168.299 32.7964 166.788C32.3796 166.425 32.3353 165.794 32.6976 165.377C33.0599 164.96 33.6915 164.916 34.1084 165.278C35.7873 166.737 37.2692 167.617 38.9311 167.502L38.9311 167.502L38.9385 167.502C40.7992 167.387 42.3389 166.381 43.9158 164.927Z" fill="#FDC635"/>
</svg>
