<svg width="24" height="24" viewBox="0 0 24 24" fill="none" xmlns="http://www.w3.org/2000/svg">
<g opacity="0.2">
<path d="M23.7822 11.4959L19.8591 7.80356C19.6581 7.61423 19.3636 7.56258 19.11 7.67217C18.8565 7.78172 18.6923 8.03147 18.6923 8.3077V9.92311H14.0769V5.3077H15.6923C15.9685 5.3077 16.2183 5.14355 16.3279 4.89C16.4374 4.63645 16.3858 4.34203 16.1965 4.14094L12.5041 0.217828C12.3733 0.0788437 12.1909 0 12 0C11.8091 0 11.6267 0.0788437 11.4959 0.217828L7.80356 4.14094C7.61423 4.34203 7.56262 4.63645 7.67217 4.89C7.78172 5.14355 8.03147 5.3077 8.3077 5.3077H9.92311V9.92311H5.3077V8.3077C5.3077 8.03152 5.14355 7.78172 4.89 7.67217C4.63641 7.56262 4.34203 7.61423 4.14094 7.80356L0.217828 11.4959C0.0788437 11.6267 0 11.8091 0 12C0 12.1909 0.0788437 12.3733 0.217828 12.5041L4.14089 16.1964C4.34198 16.3858 4.63636 16.4374 4.88995 16.3278C5.1435 16.2183 5.30766 15.9685 5.30766 15.6923V14.0769H9.92306V18.6923H8.30766C8.03147 18.6923 7.78167 18.8565 7.67212 19.11C7.56258 19.3635 7.61419 19.658 7.80352 19.8591L11.4958 23.7821C11.6266 23.9212 11.8091 24 12 24C12.1908 24 12.3733 23.9211 12.5041 23.7821L16.1964 19.8591C16.3857 19.658 16.4373 19.3635 16.3278 19.11C16.2182 18.8565 15.9685 18.6923 15.6922 18.6923H14.0768V14.0769H18.6922V15.6923C18.6922 15.9685 18.8564 16.2183 19.11 16.3278C19.3635 16.4374 19.658 16.3858 19.859 16.1964L23.7821 12.5041C23.9211 12.3734 23.9999 12.1909 23.9999 12C23.9999 11.8091 23.9212 11.6267 23.7822 11.4959Z" fill="black"/>
</g>
</svg>
