<svg width="110" height="23" viewBox="0 0 110 23" fill="none" xmlns="http://www.w3.org/2000/svg">
<path fill-rule="evenodd" clip-rule="evenodd" d="M100.802 14.2185C101.003 14.4202 101.272 14.4874 101.54 14.4874C101.808 14.4874 102.077 14.3529 102.144 14.2857L109.257 7.15966L102.412 0.302521C102.01 -0.10084 101.406 -0.10084 101.003 0.302521C100.601 0.705882 100.601 1.31092 101.003 1.71429L106.438 7.15966L100.802 12.8067C100.399 13.2101 100.399 13.8151 100.802 14.2185ZM94.1844 7.5936C94.7337 7.53626 95.1325 7.04449 95.0752 6.49519C95.0179 5.94589 94.5261 5.54707 93.9768 5.60441C92.3843 5.77063 90.7308 6.15796 88.8489 6.86364L88.8429 6.86594C87.5087 7.37604 86.3092 7.99069 85.2207 8.67448C84.7531 8.96828 84.6122 9.58556 84.906 10.0532C85.1998 10.5209 85.817 10.6618 86.2847 10.368C87.2678 9.75035 88.3498 9.19587 89.5544 8.73508C91.2932 8.0833 92.7797 7.74022 94.1844 7.5936ZM22.3302 8.15421C21.1023 7.69139 19.7556 7.49612 18.2309 7.69139C15.9339 8.00387 14.2217 8.75083 12.7294 9.65018C12.2564 9.93525 11.6418 9.78288 11.3567 9.30986C11.0717 8.83684 11.224 8.22228 11.6971 7.9372C13.3745 6.92628 15.345 6.06495 17.9654 5.70908L17.9726 5.70811L17.9726 5.70814C19.8333 5.46915 21.5103 5.70783 23.0356 6.28272C23.5524 6.4775 23.8134 7.05435 23.6186 7.57115C23.4239 8.08795 22.847 8.34899 22.3302 8.15421ZM99.2232 5.72132C98.6746 5.65742 98.1781 6.05034 98.1142 6.59891C98.0503 7.14749 98.4432 7.64399 98.9918 7.70789C99.8723 7.81045 100.773 7.93999 101.756 8.08138L101.756 8.08141C102.446 8.18059 103.176 8.28561 103.968 8.39122C104.515 8.46421 105.018 8.07959 105.091 7.53215C105.164 6.98471 104.78 6.48175 104.232 6.40876C103.49 6.30986 102.775 6.20718 102.087 6.10835L102.087 6.10831L102.087 6.1083C101.074 5.96283 100.12 5.82572 99.2232 5.72132ZM57.2854 8.09633C59.141 7.93729 60.5223 9.15399 61.912 11.4096C62.2017 11.8798 62.8177 12.0262 63.2879 11.7365C63.7581 11.4468 63.9045 10.8308 63.6148 10.3606C62.1702 8.01584 60.205 5.84097 57.119 6.10327C55.5869 6.22222 54.2948 6.91024 53.176 7.85382C52.7538 8.20987 52.7002 8.84076 53.0562 9.26295C53.4123 9.68514 54.0432 9.73875 54.4654 9.3827C55.3721 8.61802 56.2819 8.17356 57.2767 8.09704L57.2854 8.09633ZM27.2662 8.93035C26.8513 8.56582 26.2194 8.60666 25.8549 9.02155C25.4904 9.43645 25.5312 10.0683 25.9461 10.4328C27.5269 11.8217 28.9099 13.507 30.3092 15.2123C30.8787 15.9063 31.4509 16.6036 32.0403 17.2855C32.4014 17.7034 33.0329 17.7494 33.4507 17.3883C33.8686 17.0272 33.9146 16.3957 33.5535 15.9778C33.0376 15.3808 32.5087 14.7365 31.964 14.0728L31.9638 14.0725L31.9638 14.0725C30.526 12.3206 28.9777 10.4341 27.2662 8.93035ZM52.1054 12.0134C52.4367 11.5715 52.347 10.9447 51.9051 10.6134C51.4633 10.2821 50.8365 10.3718 50.5052 10.8136C49.978 11.5168 49.4535 12.2687 48.9346 13.0127L48.9344 13.0129C48.7277 13.3093 48.5219 13.6044 48.3171 13.8947C47.5876 14.9286 46.8557 15.9247 46.0755 16.8156C45.7117 17.2311 45.7536 17.8629 46.169 18.2267C46.5845 18.5906 47.2163 18.5487 47.5802 18.1332C48.432 17.1604 49.213 16.0942 49.9513 15.0476C50.1704 14.7371 50.3845 14.4301 50.5957 14.1273C51.1064 13.3951 51.5999 12.6875 52.1054 12.0134ZM83.3606 12.6019C83.7696 12.2307 83.8003 11.5983 83.4291 11.1893C83.058 10.7803 82.4256 10.7496 82.0166 11.1208C80.2462 12.7274 78.8136 14.4743 77.5659 15.9958L77.565 15.9969C77.2921 16.3296 77.0281 16.6515 76.7714 16.9589C76.4173 17.3827 76.4738 18.0133 76.8976 18.3674C77.3215 18.7215 77.9521 18.665 78.3062 18.2412C78.5835 17.9093 78.8618 17.5702 79.144 17.2263C80.3886 15.7098 81.7099 14.0998 83.3606 12.6019ZM7.5088 13.1896C7.98697 12.9132 8.15057 12.3015 7.8742 11.8234C7.59784 11.3452 6.98618 11.1816 6.50801 11.458C5.00304 12.3278 3.33487 12.9306 1.01316 12.9001C0.460922 12.8928 0.00735465 13.3346 8.8364e-05 13.8868C-0.00717792 14.4391 0.434608 14.8926 0.986845 14.8999C3.729 14.936 5.74845 14.207 7.5088 13.1896ZM66.9741 16.6801C66.7005 16.2004 66.0897 16.0334 65.61 16.307C65.1303 16.5807 64.9632 17.1914 65.2369 17.6711C66.5898 20.0428 68.3786 22.4202 71.2351 22.5979C72.8949 22.7113 74.2665 22.0995 75.4744 21.1527C75.909 20.812 75.9852 20.1835 75.6445 19.7488C75.3038 19.3141 74.6753 19.2379 74.2406 19.5786C73.2943 20.3203 72.3969 20.6733 71.3688 20.6024L71.3614 20.6019C69.6583 20.4971 68.3393 19.0733 66.9741 16.6801ZM36.7253 19.0395C36.2749 18.7199 35.6507 18.8259 35.331 19.2763C35.0114 19.7267 35.1174 20.3509 35.5678 20.6705C37.0291 21.7076 38.6802 22.361 40.5861 22.1963L40.5872 22.1962C42.0853 22.0651 43.3972 21.5566 44.5609 20.8161C45.0268 20.5196 45.1642 19.9015 44.8677 19.4356C44.5712 18.9696 43.9531 18.8322 43.4872 19.1287C42.5558 19.7214 41.5485 20.1044 40.4131 20.2038C39.1115 20.316 37.9238 19.8901 36.7253 19.0395Z" fill="#FDC635"/>
</svg>
