<svg width="48" height="48" viewBox="0 0 48 48" fill="none" xmlns="http://www.w3.org/2000/svg">
<path fill-rule="evenodd" clip-rule="evenodd" d="M9.75854 0C6.22176 0 3.35328 2.86951 3.35328 6.40526C3.35328 9.94308 6.22176 12.8116 9.75854 12.8126C13.2943 12.8126 16.1628 9.94412 16.1628 6.40526C16.1628 2.86847 13.2943 0 9.75854 0ZM38.8038 0C35.267 0 32.3965 2.86951 32.3965 6.40526C32.3965 9.94308 35.267 12.8126 38.8038 12.8126C42.3406 12.8126 45.208 9.94412 45.208 6.40526C45.208 2.86847 42.3395 0 38.8038 0ZM47.745 43.2509C48.4247 44.822 47.7016 46.6462 46.1316 47.3238C44.5605 48.0056 42.7373 47.2815 42.0577 45.7104C39.0694 38.801 32.0072 34.3356 24.0628 34.3356C15.9356 34.3356 8.83004 38.7979 5.9626 45.7021C5.46679 46.8941 4.313 47.613 3.09929 47.613C2.70264 47.613 2.30083 47.5376 1.91141 47.3765C0.331015 46.7185 -0.417866 44.9047 0.238051 43.3253C4.07026 34.0991 13.4225 28.138 24.0618 28.138C34.479 28.14 43.7754 34.0712 47.745 43.2509Z" fill="#FFA901"/>
</svg>
