<svg width="16" height="18" viewBox="0 0 16 18" fill="none" xmlns="http://www.w3.org/2000/svg">
<path d="M15.8977 3.01119C15.8296 2.94317 15.7425 2.90898 15.6365 2.90898H12.125L11.3296 1.01137C11.216 0.731005 11.0114 0.492352 10.7161 0.295371C10.4205 0.0984306 10.1212 0 9.81822 0H6.18178C5.87885 0 5.57954 0.0984306 5.28408 0.295371C4.98859 0.492352 4.78405 0.730965 4.67038 1.01137L3.87493 2.90898H0.363592C0.25744 2.90898 0.170433 2.94317 0.102212 3.01119C0.03419 3.07937 0 3.16653 0 3.27257V3.99991C0 4.10594 0.0340308 4.19311 0.102212 4.26117C0.170433 4.32931 0.257599 4.36338 0.363592 4.36338H1.45441V15.1816C1.45441 15.8106 1.63244 16.3464 1.98847 16.7895C2.34458 17.2329 2.77261 17.4543 3.27265 17.4543H12.7273C13.2275 17.4543 13.6555 17.2252 14.0115 16.767C14.3676 16.3085 14.5455 15.7651 14.5455 15.1363V4.36338H15.6365C15.7424 4.36338 15.8296 4.32931 15.8977 4.26117C15.9657 4.19315 16 4.10594 16 3.99991V3.27257C16.0001 3.16653 15.9657 3.07937 15.8977 3.01119ZM6.01139 1.57927C6.06436 1.51113 6.1288 1.46933 6.20455 1.45429H9.8068C9.88254 1.46945 9.9471 1.51121 9.99999 1.57927L10.5456 2.90882H5.45456L6.01139 1.57927ZM13.0911 15.1364C13.0911 15.303 13.0646 15.4565 13.0115 15.5965C12.9584 15.7366 12.9034 15.8388 12.8467 15.9032C12.7897 15.9678 12.7502 15.9998 12.7274 15.9998H3.27269C3.24996 15.9998 3.2104 15.9678 3.15344 15.9032C3.09656 15.8388 3.0416 15.7366 2.98854 15.5965C2.93556 15.4565 2.90905 15.3028 2.90905 15.1364V4.36338H13.091V15.1364H13.0911Z" fill="#FFA901"/>
<path d="M4.72736 13.8183H5.45459C5.56074 13.8183 5.64795 13.7843 5.71597 13.7161C5.78399 13.6477 5.81818 13.5608 5.81818 13.4546V6.909C5.81818 6.80301 5.78399 6.71585 5.71597 6.64762C5.64775 6.5796 5.56078 6.54553 5.45459 6.54553H4.72736C4.62121 6.54553 4.53416 6.57956 4.46598 6.64762C4.39788 6.71585 4.36377 6.80301 4.36377 6.909V13.4546C4.36377 13.5608 4.39776 13.6478 4.46598 13.7161C4.53416 13.7842 4.62121 13.8183 4.72736 13.8183Z" fill="#FFA901"/>
<path d="M7.63654 13.8183H8.36376C8.46987 13.8183 8.55704 13.7843 8.62502 13.7161C8.6934 13.6477 8.72727 13.5608 8.72727 13.4546V6.909C8.72727 6.80301 8.69336 6.71585 8.62502 6.64762C8.55704 6.5796 8.46987 6.54553 8.36376 6.54553H7.63654C7.53051 6.54553 7.44334 6.57956 7.37516 6.64762C7.30694 6.71585 7.27295 6.80301 7.27295 6.909V13.4546C7.27295 13.5608 7.30694 13.6478 7.37516 13.7161C7.4433 13.7842 7.53051 13.8183 7.63654 13.8183Z" fill="#FFA901"/>
<path d="M10.5453 13.8183H11.2724C11.3786 13.8183 11.4658 13.7843 11.5339 13.7161C11.602 13.6477 11.6359 13.5608 11.6359 13.4546V6.909C11.6359 6.80301 11.602 6.71585 11.5339 6.64762C11.4658 6.5796 11.3786 6.54553 11.2724 6.54553H10.5453C10.439 6.54553 10.3522 6.57956 10.2838 6.64762C10.2157 6.71585 10.1816 6.80301 10.1816 6.909V13.4546C10.1816 13.5608 10.2157 13.6478 10.2838 13.7161C10.3522 13.7842 10.439 13.8183 10.5453 13.8183Z" fill="#FFA901"/>
</svg>
