<svg width="12" height="13" viewBox="0 0 12 13" fill="none" xmlns="http://www.w3.org/2000/svg">
<path d="M11.8406 2.24273C11.7899 2.19207 11.725 2.1666 11.6461 2.1666H9.03071L8.43826 0.753268C8.35366 0.544452 8.20129 0.366703 7.98135 0.219992C7.76121 0.073311 7.53823 0 7.3126 0H4.60419C4.37856 0 4.15563 0.073311 3.93558 0.219992C3.7155 0.366703 3.56316 0.544422 3.47849 0.753268L2.88605 2.1666H0.270803C0.191741 2.1666 0.126938 2.19207 0.0761273 2.24273C0.0254647 2.29351 0 2.35843 0 2.43741V2.97913C0 3.0581 0.0253461 3.12303 0.0761273 3.17372C0.126938 3.22447 0.19186 3.24984 0.270803 3.24984H1.08324V11.3072C1.08324 11.7757 1.21584 12.1748 1.48101 12.5048C1.74624 12.835 2.06504 13 2.43746 13H9.47929C9.85181 13 10.1706 12.8293 10.4358 12.4881C10.7009 12.1466 10.8335 11.7418 10.8335 11.2735V3.24984H11.646C11.725 3.24984 11.7899 3.22447 11.8406 3.17372C11.8912 3.12305 11.9168 3.0581 11.9168 2.97913V2.43741C11.9168 2.35843 11.8913 2.29351 11.8406 2.24273ZM4.47728 1.17624C4.51673 1.12549 4.56473 1.09436 4.62114 1.08315H7.30409C7.36051 1.09445 7.40859 1.12554 7.44799 1.17624L7.85439 2.16648H4.06255L4.47728 1.17624ZM9.75021 11.2736C9.75021 11.3977 9.73053 11.512 9.69096 11.6163C9.65141 11.7206 9.61041 11.7968 9.5682 11.8447C9.52577 11.8928 9.49637 11.9167 9.47932 11.9167H2.43749C2.42057 11.9167 2.3911 11.8928 2.34868 11.8447C2.30632 11.7968 2.26538 11.7206 2.22586 11.6163C2.1864 11.512 2.16666 11.3975 2.16666 11.2736V3.24984H9.75018V11.2736H9.75021Z" fill="#FFA901"/>
<path d="M3.5208 10.2917H4.06244C4.1415 10.2917 4.20645 10.2664 4.25712 10.2156C4.30778 10.1647 4.33324 10.1 4.33324 10.0209V5.14571C4.33324 5.06677 4.30778 5.00185 4.25712 4.95104C4.20631 4.90038 4.14153 4.875 4.06244 4.875H3.5208C3.44174 4.875 3.37691 4.90035 3.32613 4.95104C3.27541 5.00185 3.25 5.06677 3.25 5.14571V10.0209C3.25 10.1 3.27532 10.1647 3.32613 10.2156C3.37691 10.2664 3.44174 10.2917 3.5208 10.2917Z" fill="#FFA901"/>
<path d="M5.68877 10.2917H6.23041C6.30944 10.2917 6.37436 10.2664 6.42499 10.2156C6.47592 10.1647 6.50115 10.1 6.50115 10.0209V5.14571C6.50115 5.06677 6.47589 5.00185 6.42499 4.95104C6.37436 4.90038 6.30944 4.875 6.23041 4.875H5.68877C5.6098 4.875 5.54488 4.90035 5.4941 4.95104C5.44328 5.00185 5.41797 5.06677 5.41797 5.14571V10.0209C5.41797 10.1 5.44328 10.1647 5.4941 10.2156C5.54485 10.2664 5.6098 10.2917 5.68877 10.2917Z" fill="#FFA901"/>
<path d="M7.85485 10.2917H8.39639C8.47552 10.2917 8.54044 10.2664 8.59116 10.2156C8.64188 10.1647 8.66711 10.1 8.66711 10.0209V5.14571C8.66711 5.06677 8.64185 5.00185 8.59116 4.95104C8.54044 4.90038 8.47552 4.875 8.39639 4.875H7.85485C7.7757 4.875 7.71098 4.90035 7.66005 4.95104C7.60933 5.00185 7.58398 5.06677 7.58398 5.14571V10.0209C7.58398 10.1 7.60933 10.1647 7.66005 10.2156C7.71098 10.2664 7.7757 10.2917 7.85485 10.2917Z" fill="#FFA901"/>
</svg>
