<svg width="13" height="13" viewBox="0 0 13 13" fill="none" xmlns="http://www.w3.org/2000/svg">
<path fill-rule="evenodd" clip-rule="evenodd" d="M0 6.5C0 2.91587 2.91587 0 6.5 0C10.0841 0 13 2.91587 13 6.5C13 10.0841 10.0841 13 6.5 13C2.91587 13 0 10.0841 0 6.5ZM1.36842 6.5C1.36842 9.32955 3.67045 11.6316 6.5 11.6316C9.32955 11.6316 11.6316 9.32955 11.6316 6.5C11.6316 3.67045 9.32955 1.36842 6.5 1.36842C3.67045 1.36842 1.36842 3.67045 1.36842 6.5ZM7.45083 6.29927H9.98915C10.3104 6.29927 10.5707 6.55965 10.5707 6.88085C10.5707 7.20205 10.3104 7.46243 9.98915 7.46243H7.45083C7.25456 7.78212 6.90175 7.99587 6.49991 7.99587C5.88512 7.99587 5.38489 7.49568 5.38489 6.88085C5.38489 6.47901 5.59864 6.1262 5.91833 5.92993V2.87846C5.91833 2.55726 6.17871 2.29688 6.49991 2.29688C6.82112 2.29688 7.08149 2.55726 7.08149 2.87846V5.92993C7.23178 6.02216 7.3586 6.14898 7.45083 6.29927Z" fill="#FFA901"/>
</svg>
