<svg width="21" height="21" viewBox="0 0 21 21" fill="none" xmlns="http://www.w3.org/2000/svg">
<path d="M20.6199 2.63379C20.4954 2.55881 20.341 2.55096 20.2095 2.61312L16.8365 4.18437C15.6473 4.73825 14.8492 5.87964 14.7451 7.17547L14.6581 8.24108L12.9104 11.1117V9.88603C12.9104 9.88203 12.9083 9.87866 12.9083 9.87434C12.9077 9.8322 12.9009 9.79022 12.8877 9.75001L12.0746 7.33761L13.7349 4.05492C13.8078 3.9088 13.791 3.73432 13.6913 3.60439L11.081 0.162434C10.9228 -0.027584 10.6388 -0.054821 10.4465 0.101551C10.424 0.119816 10.4034 0.140324 10.3849 0.162434L7.7744 3.60439C7.67557 3.7348 7.65953 3.90912 7.73309 4.05492L9.39341 7.33761L8.58026 9.75001C8.56714 9.79022 8.56033 9.8322 8.55968 9.87434V9.88603V11.6031L5.84918 7.53468C5.84578 7.53004 5.8406 7.52731 5.83752 7.52315C5.81127 7.48726 5.77984 7.45569 5.74404 7.42926C5.73577 7.42333 5.72832 7.41644 5.71957 7.41083C5.71099 7.40523 5.70953 7.40218 5.70402 7.39914L4.10899 6.48702L3.44684 5.49319L2.48965 4.0562C2.37981 3.8915 2.17065 3.8218 1.98239 3.88717L0.289499 4.47437C0.0631654 4.554 -0.0552672 4.79993 0.025254 5.02375C0.036919 5.0566 0.0526344 5.08768 0.0720761 5.11668L1.26888 6.91352L1.92892 7.90687L2.14635 9.71652C2.14748 9.72229 2.14894 9.72806 2.15072 9.73367C2.15266 9.7428 2.15493 9.75193 2.15769 9.76074C2.16757 9.80625 2.18491 9.84999 2.20905 9.88988C2.21212 9.89421 2.21212 9.89981 2.2152 9.90414C2.21828 9.9083 8.68508 19.6013 8.71635 19.6276C9.03455 20.4541 9.83603 21.0003 10.7304 21C10.9079 20.9998 11.0848 20.9785 11.2572 20.9364C11.8178 20.8004 12.3001 20.4485 12.5968 19.9587L18.3831 10.466L19.2967 9.89421C19.7768 9.59235 20.1795 9.18492 20.4741 8.70363C20.8478 8.09144 21.0296 7.38312 20.9961 6.66871L20.8264 2.98499C20.8213 2.84111 20.7438 2.70925 20.6199 2.63379ZM17.4687 10.3007L16.7955 11.406L14.5597 10.0724L15.2337 8.96703L17.4687 10.3007ZM9.42986 16.8202V10.3162H12.0402V12.5389L9.42986 16.8202ZM10.1787 7.73479H11.2916L11.8714 9.45569H9.59868L10.1787 7.73479ZM10.7351 4.72302C10.4948 4.72302 10.3 4.53044 10.3 4.29284C10.3 4.05524 10.4948 3.86266 10.7351 3.86266C10.9753 3.86266 11.1702 4.05524 11.1702 4.29284C11.1702 4.53044 10.9753 4.72302 10.7351 4.72302ZM10.7351 1.13784L12.8361 3.90784L11.3363 6.87427H11.1701V5.50441C11.8497 5.2668 12.206 4.52932 11.9656 3.85721C11.7253 3.1851 10.9797 2.83294 10.3 3.07054C9.62039 3.30814 9.26429 4.04563 9.50455 4.71774C9.63595 5.08528 9.92838 5.37447 10.3 5.50441V6.87427H10.1338L8.63405 3.90784L10.7351 1.13784ZM4.65854 7.79536L4.53055 7.87883L2.92823 8.92265L2.78079 7.70339C2.77269 7.63706 2.7492 7.57361 2.71194 7.51786L2.23351 6.79944L2.95998 6.32616L3.43857 7.04458C3.47584 7.10033 3.52557 7.14664 3.5839 7.18012L4.65854 7.79536ZM1.95015 4.80906L2.48091 5.6063L1.75443 6.07959L1.10184 5.10306L1.95015 4.80906ZM4.27214 9.07678L5.3599 8.36637L8.55968 13.1666V17.8593L3.18227 9.7875L4.27214 9.07678ZM11.8528 19.5117C11.4839 20.1243 10.6829 20.3252 10.0635 19.9604C9.44412 19.5957 9.24112 18.8034 9.60986 18.1909C9.61262 18.1866 9.61521 18.1824 9.6178 18.1781L12.903 12.7901H12.9104V12.7786L14.1103 10.8102L15.228 11.478L16.3474 12.143L11.8528 19.5117ZM19.7309 8.25758C19.5065 8.62416 19.1993 8.93466 18.8335 9.16441L18.0607 9.64843L16.7991 8.89733L15.5373 8.14607L15.6091 7.24261C15.6888 6.2547 16.2972 5.38472 17.2036 4.96223L19.988 3.66591L20.0434 4.86498C19.9998 4.86033 19.9558 4.86209 19.9128 4.87058L18.8591 5.12886C17.8784 5.36566 17.1192 6.1331 16.9013 7.10786C16.8488 7.3397 16.9963 7.56961 17.2307 7.62152C17.262 7.62873 17.2939 7.63241 17.326 7.63241C17.5294 7.63209 17.7057 7.49238 17.7501 7.29596C17.8972 6.64051 18.4077 6.12445 19.0671 5.96471L20.0834 5.71557L20.1291 6.70524C20.1546 7.25014 20.016 7.79039 19.7309 8.25758Z" fill="#ffffff"/>
</svg>
