<svg width="22" height="15" viewBox="0 0 22 15" fill="none" xmlns="http://www.w3.org/2000/svg">
<path opacity="0.3" fill-rule="evenodd" clip-rule="evenodd" d="M11.0001 0.26709C13.9383 0.26709 16.7007 1.36143 18.7784 3.34848C20.856 5.33569 22.0002 7.97754 22 10.7876C22 11.5319 21.9183 12.2751 21.757 12.9969C21.6659 13.4046 21.5479 13.8112 21.4064 14.2055C21.2897 14.5304 20.9196 14.7033 20.5799 14.5919C20.2402 14.4803 20.0592 14.1265 20.1759 13.8014C20.3006 13.4542 20.4045 13.0959 20.4849 12.7366C20.5821 12.3016 20.6457 11.8573 20.6767 11.4097H18.677C18.3176 11.4097 18.0264 11.1312 18.0264 10.7876C18.0264 10.4441 18.3176 10.1656 18.677 10.1656H20.6769C20.5908 8.92869 20.2502 7.75746 19.7047 6.6994L17.9737 7.6552C17.8713 7.71187 17.7594 7.73868 17.6491 7.73868C17.4243 7.73868 17.2056 7.62711 17.0851 7.42757C16.9055 7.12994 17.0121 6.74948 17.3233 6.57772L19.0528 5.62272C18.3488 4.62197 17.4467 3.75912 16.4003 3.08585L15.4018 4.74012C15.2812 4.93966 15.0627 5.05123 14.838 5.05123C14.7275 5.05123 14.6157 5.02426 14.5133 4.96775C14.2022 4.79598 14.0956 4.41553 14.2752 4.11806L15.2747 2.46235C14.1682 1.94062 12.9436 1.61507 11.6505 1.53271V3.44528C11.6505 3.78881 11.3591 4.06734 10.9999 4.06734C10.6407 4.06734 10.3495 3.78881 10.3495 3.44528V1.53271C9.05626 1.61491 7.8318 1.94062 6.72535 2.46235L7.72472 4.1179C7.90448 4.41553 7.7979 4.79598 7.48671 4.96775C7.38432 5.02426 7.27237 5.05123 7.16209 5.05123C6.93734 5.05123 6.71863 4.93966 6.59829 4.73996L5.59959 3.08585C4.55339 3.75912 3.6512 4.62197 2.94725 5.62272L4.67676 6.57772C4.98778 6.74948 5.09437 7.12994 4.91477 7.42757C4.79442 7.62711 4.57571 7.73868 4.35096 7.73868C4.24052 7.73868 4.12873 7.71171 4.02635 7.6552L2.29533 6.69924C1.74982 7.75746 1.40925 8.92869 1.32315 10.1656H3.32306C3.68226 10.1656 3.97347 10.4441 3.97347 10.7876C3.97347 11.1312 3.68226 11.4097 3.32306 11.4097H1.32332C1.35605 11.8825 1.42537 12.3514 1.53195 12.8103C1.62024 13.1905 1.73505 13.5688 1.87319 13.9352C1.99505 14.2583 1.81998 14.6147 1.4821 14.7314C1.40909 14.7564 1.33473 14.7685 1.26138 14.7685C0.995005 14.7685 0.745079 14.6107 0.649573 14.3572C0.492803 13.9414 0.362385 13.5118 0.262011 13.0803C0.0881204 12.3321 0 11.5608 0 10.7876C0 7.97754 1.14422 5.33569 3.22185 3.34848C5.29948 1.36143 8.06192 0.26709 11.0001 0.26709ZM11.8759 9.26836L14.6493 6.41027C14.8937 6.1584 15.3051 6.14363 15.5684 6.37736C15.8318 6.61109 15.8472 7.00471 15.6028 7.25659L12.7091 10.2388C12.769 10.4115 12.8021 10.596 12.8021 10.7876C12.8021 11.7513 11.9823 12.5352 10.9749 12.5352C9.96731 12.5352 9.14771 11.7513 9.14771 10.7876C9.14771 9.82412 9.96731 9.04008 10.9749 9.04008C11.3024 9.04008 11.6099 9.1234 11.8759 9.26836ZM10.4485 10.7876C10.4485 11.0652 10.6847 11.291 10.9749 11.291C11.2651 11.291 11.5013 11.0652 11.5013 10.7876C11.5013 10.5101 11.2651 10.2844 10.9749 10.2844C10.6847 10.2844 10.4485 10.5101 10.4485 10.7876Z" fill="black"/>
</svg>
