<svg width="13" height="13" viewBox="0 0 13 13" fill="none" xmlns="http://www.w3.org/2000/svg">
<path fill-rule="evenodd" clip-rule="evenodd" d="M4.16517 2.16668C4.16517 2.25857 4.14219 2.34497 4.10195 2.42074L5.0899 3.40867C5.30143 3.6202 5.30143 3.96317 5.0899 4.17471C4.87837 4.38624 4.5354 4.38624 4.32386 4.17471L2.70191 2.55274C2.67514 2.52639 2.65112 2.49726 2.63028 2.46583C2.62907 2.46399 2.62796 2.46211 2.62685 2.46022C2.62599 2.45875 2.62512 2.45728 2.62421 2.45583C2.6169 2.44427 2.60976 2.43262 2.60334 2.42051C2.60186 2.4177 2.60053 2.41484 2.5992 2.41198C2.59827 2.40998 2.59734 2.40797 2.59636 2.40598C2.59095 2.39507 2.58559 2.38412 2.58094 2.3728C2.57952 2.36934 2.57828 2.36583 2.57705 2.36232C2.57632 2.36021 2.57558 2.35811 2.5748 2.35602L2.57401 2.35391C2.57024 2.34377 2.56646 2.33363 2.56332 2.32318C2.56211 2.31913 2.56112 2.31503 2.56012 2.31093C2.55955 2.30858 2.55898 2.30623 2.55837 2.30389C2.55792 2.30216 2.55746 2.30043 2.55701 2.2987C2.5547 2.28993 2.55239 2.28117 2.55063 2.27218C2.54947 2.26636 2.54867 2.26049 2.54786 2.25463C2.5475 2.25199 2.54714 2.24936 2.54674 2.24673C2.54634 2.24404 2.54591 2.24136 2.54548 2.23868C2.54449 2.23251 2.5435 2.22633 2.54288 2.22005C2.54116 2.20248 2.54024 2.18488 2.54022 2.16726L2.54019 2.16668L2.54022 2.16609C2.54024 2.1485 2.54116 2.13088 2.54288 2.11333C2.5435 2.10702 2.5445 2.10083 2.54549 2.09464C2.54592 2.09197 2.54634 2.0893 2.54674 2.08662C2.54711 2.08414 2.54744 2.08166 2.54778 2.07918C2.5486 2.07318 2.54942 2.06717 2.5506 2.0612C2.55235 2.05227 2.55464 2.04356 2.55694 2.03484C2.55741 2.03305 2.55788 2.03126 2.55835 2.02946C2.55895 2.02714 2.55952 2.0248 2.56009 2.02247C2.56109 2.01836 2.56208 2.01426 2.5633 2.01019C2.56642 1.99987 2.57014 1.98986 2.57387 1.97983L2.5748 1.97734C2.5756 1.97518 2.57636 1.97301 2.57712 1.97085C2.57832 1.9674 2.57953 1.96395 2.58092 1.96055C2.58559 1.94923 2.59095 1.93829 2.59633 1.92737C2.59723 1.92552 2.59809 1.92367 2.59896 1.92181C2.60035 1.9188 2.60174 1.91579 2.60331 1.91284C2.60974 1.90073 2.61687 1.88908 2.62418 1.87753C2.62507 1.87611 2.62591 1.87469 2.62674 1.87326C2.62788 1.87133 2.62901 1.86941 2.63025 1.86752C2.6511 1.83606 2.67509 1.80697 2.70188 1.78061L4.32384 0.158648C4.53537 -0.0528826 4.87835 -0.0528826 5.08988 0.158648C5.30141 0.370178 5.30141 0.713157 5.08988 0.924687L4.10195 1.91262C4.14219 1.98836 4.16517 2.07479 4.16517 2.16668ZM5.03482 2.16666C5.03482 2.4662 5.27748 2.70832 5.57648 2.70832H6.55311C6.85265 2.70832 7.09477 2.4662 7.09477 2.16666C7.09477 1.86713 6.85265 1.625 6.55311 1.625H5.57648C5.27748 1.625 5.03482 1.86713 5.03482 2.16666ZM8.50602 2.70832H9.48265C9.78218 2.70832 10.0243 2.4662 10.0243 2.16666C10.0243 1.86713 9.78218 1.625 9.48265 1.625H8.50602C8.20702 1.625 7.96436 1.86713 7.96436 2.16666C7.96436 2.4662 8.20702 2.70832 8.50602 2.70832ZM4.44269 6.50011C4.44269 6.79964 4.20056 7.04177 3.90103 7.04177H2.92493C2.6254 7.04177 2.38327 6.79964 2.38327 6.50011C2.38327 6.20057 2.6254 5.95845 2.92493 5.95845H3.90103C4.20056 5.95845 4.44269 6.20057 4.44269 6.50011ZM0.332176 8.32877C0.400427 8.35749 0.471394 8.37102 0.541802 8.37102C0.753587 8.37102 0.954555 8.2459 1.04121 8.03899C1.13546 7.81474 1.28171 7.61052 1.46481 7.44857C1.68906 7.25032 1.71018 6.90798 1.51193 6.68429C1.31368 6.4595 0.970271 6.43944 0.747645 6.63716C0.443235 6.90633 0.198926 7.24596 0.0423916 7.61971C-0.0735173 7.89543 0.0564834 8.21284 0.332176 8.32877ZM3.15812 10.2918H4.13474C4.4343 10.2918 4.6764 10.534 4.6764 10.8335C4.6764 11.133 4.43428 11.3752 4.13474 11.3752H3.15812C2.85911 11.3752 2.61646 11.133 2.61646 10.8335C2.61646 10.534 2.85911 10.2918 3.15812 10.2918ZM1.6022 9.99443C1.40233 9.85196 1.23442 9.66455 1.11686 9.45115C0.971139 9.19005 0.642354 9.0958 0.379636 9.23989C0.118543 9.38561 0.0237592 9.71493 0.168918 9.97711C0.365011 10.3303 0.643954 10.6412 0.974923 10.8768C1.07026 10.9451 1.17967 10.9771 1.28802 10.9771C1.45755 10.9771 1.62439 10.898 1.73002 10.7495C1.90336 10.5057 1.84595 10.1672 1.6022 9.99443ZM12.0115 3.80961C11.8225 3.80961 11.6394 3.71102 11.5397 3.53499C11.4189 3.32264 11.2499 3.13686 11.049 2.99711C10.8036 2.82648 10.7424 2.48848 10.9136 2.24257C11.0836 1.99667 11.4222 1.93601 11.6676 2.10717C12.0001 2.33901 12.2823 2.64776 12.4822 3.00092C12.6301 3.26092 12.5385 3.59186 12.278 3.7392C12.194 3.78686 12.102 3.80961 12.0115 3.80961ZM12.3354 4.64981C12.0587 4.53606 11.7423 4.66931 11.6291 4.94665C11.537 5.17144 11.3924 5.37728 11.2109 5.54087C10.9888 5.74128 10.9715 6.08416 11.1719 6.30572C11.2786 6.42435 11.4265 6.48447 11.5738 6.48447C11.7038 6.48447 11.8333 6.43897 11.9368 6.34525C12.239 6.07279 12.479 5.73047 12.6323 5.35562C12.7449 5.07881 12.6117 4.763 12.3354 4.64981ZM8.784 5.95845H9.76063C10.0596 5.95845 10.3023 6.20058 10.3023 6.50011C10.3023 6.79965 10.0596 7.04178 9.76063 7.04178H8.784C8.48447 7.04178 8.24234 6.79965 8.24234 6.50011C8.24234 6.20058 8.48447 5.95845 8.784 5.95845ZM6.8303 7.04177C7.1293 7.04177 7.37196 6.79964 7.37196 6.50011C7.37196 6.20057 7.1293 5.95845 6.8303 5.95845H5.85367C5.55414 5.95845 5.31201 6.20057 5.31201 6.50011C5.31201 6.79964 5.55414 7.04177 5.85367 7.04177H6.8303ZM7.06388 10.2918C7.36341 10.2918 7.60554 10.5339 7.60554 10.8335C7.60554 11.133 7.36341 11.3751 7.06388 11.3751H6.08725C5.78825 11.3751 5.54559 11.133 5.54559 10.8335C5.54559 10.5339 5.78825 10.2918 6.08725 10.2918H7.06388ZM10.0604 11.0872C10.0621 11.0842 10.0635 11.0811 10.0649 11.078L10.0675 11.0725C10.0729 11.0617 10.0782 11.0508 10.0828 11.0395C10.0851 11.0339 10.0869 11.0282 10.089 11.0226L10.0896 11.0209C10.0935 11.0107 10.0973 11.0004 10.1005 10.9899C10.1017 10.9857 10.1028 10.9815 10.1038 10.9773L10.1055 10.9704L10.107 10.9648C10.1092 10.9562 10.1115 10.9476 10.1132 10.9388C10.1144 10.9329 10.1152 10.9269 10.116 10.9209L10.1171 10.9132L10.1184 10.9049C10.1194 10.8988 10.1203 10.8928 10.1209 10.8867C10.1244 10.8512 10.1244 10.8154 10.1209 10.7799C10.1201 10.771 10.1184 10.7623 10.1171 10.7535C10.1158 10.7449 10.1149 10.7363 10.1132 10.7278C10.1114 10.7186 10.109 10.7097 10.1066 10.7007L10.1055 10.6962L10.1038 10.6894C10.1028 10.6852 10.1017 10.681 10.1005 10.6768C10.0973 10.6663 10.0935 10.656 10.0897 10.6458L10.0897 10.6457L10.089 10.6441L10.0867 10.6376C10.0855 10.6341 10.0843 10.6306 10.0828 10.6272C10.0782 10.6159 10.0729 10.605 10.0675 10.5941L10.0646 10.588C10.0639 10.5865 10.0631 10.5849 10.0624 10.5833C10.0618 10.582 10.0611 10.5807 10.0604 10.5794C10.054 10.5674 10.0469 10.5558 10.0397 10.5443L10.038 10.5415C10.0365 10.539 10.0351 10.5365 10.0335 10.5341C10.0127 10.5027 9.98867 10.4736 9.96193 10.4473L8.33994 8.82529C8.12841 8.61376 7.78543 8.61376 7.5739 8.82529C7.36237 9.03682 7.36237 9.3798 7.5739 9.59133L8.56183 10.5793C8.52159 10.655 8.49861 10.7414 8.49861 10.8333C8.49861 10.9252 8.52159 11.0116 8.56183 11.0874L7.5739 12.0753C7.36237 12.2868 7.36237 12.6298 7.5739 12.8413C7.78543 13.0529 8.12841 13.0529 8.33994 12.8413L9.96193 11.2194C9.98869 11.193 10.0127 11.1639 10.0335 11.1325L10.0369 11.1269L10.0397 11.1223C10.0469 11.1109 10.054 11.0993 10.0604 11.0872Z" fill="#FFA901"/>
</svg>
