<svg width="52" height="13" viewBox="0 0 52 13" fill="none" xmlns="http://www.w3.org/2000/svg">
<path d="M4.54286 4.45678L6.54312 6.45713L2.19964 10.8008L0.416253 10.9977C0.177509 11.0241 -0.0242047 10.8222 0.00235713 10.5834L0.200789 8.79873L4.54286 4.45678ZM7.78028 4.15896L6.84108 3.21973C6.54812 2.92676 6.07298 2.92676 5.78002 3.21973L4.89645 4.10334L6.89671 6.10368L7.78028 5.22008C8.07324 4.92695 8.07324 4.45194 7.78028 4.15896Z" fill="#FFA901"/>
<path d="M19.9863 11H15.1406V2.43359H19.9863V3.61719H16.541V5.94922H19.7695V7.12109H16.541V9.81055H19.9863V11ZM28.8105 6.63477C28.8105 8.04883 28.418 9.13086 27.6328 9.88086C26.8477 10.627 25.7168 11 24.2402 11H21.8438V2.43359H24.4922C25.8555 2.43359 26.916 2.80078 27.6738 3.53516C28.4316 4.26953 28.8105 5.30273 28.8105 6.63477ZM27.334 6.68164C27.334 4.63086 26.375 3.60547 24.457 3.60547H23.2441V9.82227H24.2402C26.3027 9.82227 27.334 8.77539 27.334 6.68164ZM30.6562 11V2.43359H32.0566V11H30.6562ZM37.2832 11H35.8828V3.63477H33.3633V2.43359H39.8027V3.63477H37.2832V11Z" fill="#FFA901"/>
</svg>
