<svg width="337" height="189" viewBox="0 0 337 189" fill="none" xmlns="http://www.w3.org/2000/svg">
<path d="M0 20C0 8.95431 8.95431 0 20 0H317C328.046 0 337 8.9543 337 20V189H0V20Z" fill="#F8F8F8"/>
<path d="M144 118.834C144 121.687 146.323 124 149.166 124H187.834C190.687 124 193 121.677 193 118.834V80.1663C193 77.3128 190.677 75 187.834 75H149.166C146.313 75 144 77.3228 144 80.1663V118.834ZM187.834 121.547H149.166C147.674 121.547 146.453 120.326 146.453 118.834V112.376L155.744 103.084L163.684 111.024C164.165 111.505 164.936 111.505 165.416 111.024L179.754 96.6866L190.547 107.48V118.834C190.547 120.326 189.326 121.547 187.834 121.547ZM149.166 77.453H187.834C189.326 77.453 190.547 78.6745 190.547 80.1663V104.006L180.615 94.0834C180.134 93.6028 179.363 93.6028 178.883 94.0834L164.545 108.421L156.605 100.481C156.125 100.001 155.354 100.001 154.873 100.481L146.453 108.902V80.1663C146.453 78.6745 147.674 77.453 149.166 77.453Z" fill="#005C9D"/>
<path d="M159.189 94.634C162.633 94.634 165.426 91.8305 165.426 88.3963C165.426 84.9621 162.623 82.1587 159.189 82.1587C155.754 82.1587 152.951 84.9621 152.951 88.3963C152.951 91.8305 155.744 94.634 159.189 94.634ZM159.189 84.6117C161.281 84.6117 162.973 86.3138 162.973 88.3963C162.973 90.4789 161.271 92.181 159.189 92.181C157.106 92.181 155.404 90.4789 155.404 88.3963C155.404 86.3138 157.096 84.6117 159.189 84.6117Z" fill="#005C9D"/>
</svg>
