<svg width="120" height="120" viewBox="0 0 120 120" fill="none" xmlns="http://www.w3.org/2000/svg">
<rect x="0.5" y="0.5" width="119" height="119" rx="9.5" fill="white" stroke="#EAEDF2" stroke-dasharray="10 6"/>
<path fill-rule="evenodd" clip-rule="evenodd" d="M49.6956 54.855H52.1594V51.1594H55.855V48.6956H52.1594V45H49.6956V48.6956H46V51.1594H49.6956V54.855ZM71.8692 51.1593H67.9641L65.7098 48.6955H57.0868V52.3911H53.3911V56.0867H49.6955V68.4054C49.6955 69.7605 50.8042 70.8692 52.1593 70.8692H71.8692C73.2243 70.8692 74.3329 69.7605 74.3329 68.4054V53.623C74.3329 52.268 73.2243 51.1593 71.8692 51.1593ZM62.0142 67.1736C58.6142 67.1736 55.8548 64.4142 55.8548 61.0142C55.8548 57.6142 58.6142 54.8549 62.0142 54.8549C65.4142 54.8549 68.1736 57.6143 68.1736 61.0143C68.1736 64.4142 65.4142 67.1736 62.0142 67.1736ZM58.0723 61.0143C58.0723 58.8339 59.8339 57.0723 62.0143 57.0723C64.1947 57.0723 65.9563 58.8339 65.9563 61.0143C65.9563 63.1947 64.1947 64.9563 62.0143 64.9563C59.8339 64.9563 58.0723 63.1947 58.0723 61.0143Z" fill="#005C9D"/>
</svg>
