<svg width="14" height="19" viewBox="0 0 14 19" fill="none" xmlns="http://www.w3.org/2000/svg">
<path opacity="0.23" d="M6.82973 0C3.0638 0 0 3.0638 0 6.82969C0 11.5033 6.11194 18.3644 6.37216 18.6542C6.61658 18.9264 7.04332 18.9259 7.2873 18.6542C7.54752 18.3644 13.6595 11.5033 13.6595 6.82969C13.6594 3.0638 10.5956 0 6.82973 0ZM6.82973 10.2659C4.93499 10.2659 3.39356 8.72443 3.39356 6.82969C3.39356 4.93496 4.93503 3.39352 6.82973 3.39352C8.72443 3.39352 10.2659 4.93499 10.2659 6.82973C10.2659 8.72446 8.72443 10.2659 6.82973 10.2659Z" fill="black"/>
</svg>
