<svg width="20" height="37" viewBox="0 0 20 37" fill="none" xmlns="http://www.w3.org/2000/svg">
<path d="M8.66403 9.06122C10.9525 9.06122 12.8077 7.0328 12.8077 4.53061C12.8077 2.02842 10.9525 0 8.66403 0C6.37554 0 4.52036 2.02842 4.52036 4.53061C4.52036 7.0328 6.37554 9.06122 8.66403 9.06122Z" fill="white"/>
<path d="M17.6181 14.7633C13.2839 14.6797 9.26482 10.4163 9.26482 10.4163C8.79199 9.91471 8.08275 9.66392 7.45231 9.91471C4.22131 10.8343 1.06913 16.9368 0.202274 18.7759C-0.270554 19.7791 0.123469 20.9495 0.990321 21.451C1.22674 21.6182 1.54195 21.7018 1.85717 21.7018C2.56642 21.7018 3.19685 21.2838 3.51207 20.6151C4.06371 19.3611 4.77295 18.1072 5.48219 16.9368V24.7949L1.06913 34.0741C0.596298 35.0773 0.990321 36.2476 1.85717 36.7492C2.09359 36.9164 2.40881 37 2.72403 37C3.43327 37 4.06371 36.582 4.37892 35.9132L9.58004 25.0457L13.2839 27.9716V34.4085C13.2839 35.4953 14.1507 36.4148 15.1752 36.4148C16.1996 36.4148 17.0665 35.4953 17.0665 34.4085V26.9684C17.0665 26.3832 16.8301 25.7981 16.3572 25.3801L12.4958 22.287V17.522C14.0719 18.2744 15.8056 18.8595 17.6969 18.8595C18.7214 18.8595 19.5094 18.0236 19.5882 16.9368C19.4306 15.6829 18.6426 14.8469 17.6181 14.7633Z" fill="white"/>
</svg>
