<svg width="1440" height="900" viewBox="0 0 1440 900" fill="none" xmlns="http://www.w3.org/2000/svg">
<g filter="url(#filter0_d)">
<rect width="1439" height="1125" fill="url(#paint0_linear)"/>
</g>
<path opacity="0.6" d="M1363.5 1125C1254.17 1122.5 1004 1075.8 878 909C720.5 700.5 676 467.5 482 357.5C326.8 269.5 167 231 -8 263.5" stroke="white" stroke-width="3" stroke-linecap="round" stroke-dasharray="20 10"/>
<path opacity="0.4" d="M1444.5 816.5C1420.83 728.333 1342.1 534.8 1216.5 466C1059.5 380 1040 264.5 1008 142C982.4 44 856.667 6.5 797 0" stroke="white" stroke-width="3" stroke-linecap="round" stroke-dasharray="20 10"/>
<path opacity="0.3" d="M-8 1111C28.6667 1034 156.8 873.2 376 846C650 812 749 929.5 1030.5 736.5C1312 543.5 1255.39 446.717 1338.5 316.5C1417 193.5 1510.5 171.333 1537 148" stroke="white" stroke-width="3" stroke-linecap="round" stroke-dasharray="20 10"/>
<path opacity="0.4" d="M296.5 1124C326.5 1025.83 358 771.7 236 588.5C83.5 359.5 130 191 246.5 96C339.7 20 499.333 1 567.5 1" stroke="white" stroke-width="3" stroke-linecap="round" stroke-dasharray="20 10"/>
<defs>
<filter id="filter0_d" x="-10" y="-8" width="1459" height="1145" filterUnits="userSpaceOnUse" color-interpolation-filters="sRGB">
<feFlood flood-opacity="0" result="BackgroundImageFix"/>
<feColorMatrix in="SourceAlpha" type="matrix" values="0 0 0 0 0 0 0 0 0 0 0 0 0 0 0 0 0 0 127 0"/>
<feOffset dy="2"/>
<feGaussianBlur stdDeviation="5"/>
<feColorMatrix type="matrix" values="0 0 0 0 0.851528 0 0 0 0 0.562009 0 0 0 0 0 0 0 0 0.43 0"/>
<feBlend mode="normal" in2="BackgroundImageFix" result="effect1_dropShadow"/>
<feBlend mode="normal" in="SourceGraphic" in2="effect1_dropShadow" result="shape"/>
</filter>
<linearGradient id="paint0_linear" x1="1340.65" y1="-0.000132908" x2="-70.019" y2="259.092" gradientUnits="userSpaceOnUse">
<stop stop-color="#FDC635"/>
<stop offset="1" stop-color="#FFA901"/>
</linearGradient>
</defs>
</svg>
