<svg width="108" height="44" viewBox="0 0 108 44" fill="none" xmlns="http://www.w3.org/2000/svg">
<path d="M51.5968 14.8181C49.1785 18.4938 46.728 23.2854 45.4383 26.961C44.6967 29.0614 45.0191 29.5865 45.5028 30.3085C45.9219 30.9321 46.5023 31.49 47.1472 31.8182C47.8566 32.1792 48.6304 32.212 49.8557 31.9823C51.6613 31.6541 54.0796 30.5055 55.4983 28.9302C56.8848 27.3877 56.917 25.4514 56.2399 24.434C55.8208 23.8105 55.3049 23.351 54.6922 23.0556C57.0783 22.0054 58.7872 20.3645 59.7222 19.1502C60.8185 17.7062 61.4312 15.8683 60.8508 13.6695C60.2704 11.4378 58.6904 10.9127 57.046 11.0112C54.8857 11.1424 51.9838 12.7506 49.7267 12.9475C49.3398 12.9803 49.243 13.1444 49.4043 13.5054C49.63 14.0305 50.3071 14.7525 51.5968 14.8181ZM50.1136 22.1367C51.0487 20.4629 51.9838 18.9205 52.6286 17.7062C53.4347 16.1965 53.6604 15.212 53.5959 14.49C55.8208 13.7679 59.0129 12.2583 59.6578 13.9649C60.4639 16.1965 56.4979 20.627 50.1136 22.1367ZM52.5964 23.7776C55.5306 23.9417 55.5306 25.4186 54.3375 26.9282C52.9511 28.6676 50.1781 30.0132 48.1145 30.2757C47.0827 30.407 46.728 30.0132 47.0827 28.8645C47.5664 27.2236 48.3725 25.4842 49.243 23.7776C49.6944 24.0074 50.3393 24.1058 51.2421 24.0074C51.6936 23.9417 52.145 23.8761 52.5964 23.7776Z" fill="#200F32"/>
<path d="M61.3611 25.9765C63.6182 27.8471 65.7785 26.9939 67.3585 25.0247C68.7127 23.351 68.9707 21.3491 68.3903 20.5614C67.8744 19.8394 67.294 19.3471 66.4879 18.8548C64.8757 17.9031 61.5868 19.6097 59.491 23.8433C57.3952 28.0769 58.8139 32.1792 62.9088 32.1136C65.3916 32.0808 67.8744 30.5711 69.2286 28.5692C69.809 27.7159 69.9057 26.797 69.7768 26.5344C69.6478 26.239 69.3898 26.239 69.2286 26.5016C67.8421 28.6676 65.4883 31.2931 62.8121 31.1618C61.1032 31.0634 60.3293 28.9958 61.3611 25.9765ZM61.6513 25.2545C61.7158 25.0904 61.8125 24.8935 61.9093 24.6966C63.4247 21.5788 66.101 19.6097 66.7781 20.1676C67.2295 20.5286 66.5201 22.2352 65.4883 23.6135C64.5533 24.8606 63.2313 26.2719 61.6513 25.2545Z" fill="#200F32"/>
<path d="M77.6221 14.3587C74.6234 18.9861 71.1411 26.1078 70.3995 28.7989C69.9803 30.3742 70.3672 31.3587 70.8186 31.7854C71.0443 32.0151 71.2056 32.0151 71.3345 31.6869C73.8495 25.6811 76.5903 21.0865 78.5249 17.5093C79.3955 15.9012 79.6212 14.8181 79.5889 14.0305C81.4591 13.7023 83.4904 13.3741 85.0704 13.5382C85.4895 13.571 85.554 13.3085 85.4573 13.0459C84.9736 11.766 83.7484 11.405 82.3941 11.3722C80.5562 11.3065 75.2038 12.5208 72.3341 12.2911C72.0116 12.2583 71.8827 12.4224 71.9794 12.7177C72.3341 13.932 73.7206 14.654 75.6552 14.5884C76.2356 14.5556 76.8804 14.49 77.6221 14.3587Z" fill="#200F32"/>
<path d="M82.1984 21.2178C83.0045 19.1502 83.2624 17.2467 82.2629 17.2795C81.0699 17.3124 78.2647 21.185 80.1026 22.3992C78.9095 24.1386 76.7492 27.2236 76.0076 28.6676C75.137 30.3414 75.137 31.851 76.0721 32.8356C76.3623 33.131 76.5557 32.9669 76.6202 32.6715C77.2329 29.685 80.3283 25.0247 81.5535 22.7274C82.5208 22.7274 83.9073 22.4321 85.326 21.4803C84.0363 22.99 82.1662 25.3201 81.4568 27.4861C80.6507 29.9475 81.5858 32.1136 83.9073 32.212C85.6162 32.2777 87.4864 30.8993 88.228 28.9958C88.5827 28.1097 88.5504 27.322 88.3892 26.961C88.2602 26.6985 88.0668 26.7313 87.9378 26.9939C86.906 29.3568 85.3583 31.3916 84.1008 31.3259C83.1657 31.2931 82.7788 30.0132 83.2947 28.3066C83.8106 26.6 85.3905 24.5325 86.8415 22.8587C87.7766 21.7757 87.0027 20.3317 86.3901 19.6425C86.1644 19.3799 85.9064 19.4456 85.5195 19.7081C84.3265 20.5614 83.2302 21.0865 82.1984 21.2178Z" fill="#200F32"/>
<path d="M95.0017 16.5247C94.5825 15.6386 93.6474 15.2448 93.1315 15.8027C92.6156 16.3606 92.4544 17.3452 92.9703 18.2313C93.454 19.0846 94.3568 19.183 94.776 18.7236C95.1951 18.2641 95.4208 17.378 95.0017 16.5247ZM89.7459 32.0808C91.5516 32.0808 93.583 30.7024 94.5503 28.6676C94.9372 27.8471 95.0339 27.158 94.776 26.6329C94.647 26.3703 94.4213 26.3375 94.2601 26.6329C93.2928 28.8973 91.5194 31.0634 90.0684 31.129C89.0366 31.1947 88.9721 29.9147 89.7459 28.0112C90.4231 26.3703 91.7773 24.1386 92.4544 22.6946C93.2283 21.0537 92.9703 19.6425 92.4867 19.1174C92.2287 18.822 92.003 18.9205 91.7128 19.3143C90.5198 21.0209 88.3917 24.8935 87.5856 27.2892C86.6828 29.9804 87.2954 32.0808 89.7459 32.0808Z" fill="#200F32"/>
<path d="M100.432 31.4572C101.657 30.7024 102.85 29.1271 103.817 26.961C105.01 24.2699 105.72 21.3491 104.172 19.6753C102.786 18.1985 100.883 19.1174 99.4644 20.3645C99.4967 19.8066 99.4322 19.3143 99.271 18.8877C99.1097 18.4938 98.8195 18.4282 98.4971 18.8548C96.4657 21.6116 91.0488 32.0151 90.0815 35.1985C89.4689 37.2005 89.6301 38.1194 90.1137 38.8086C90.3072 39.1039 90.5329 39.0383 90.6619 38.7429C92.2096 35.1001 93.854 31.7526 95.3695 28.9302C95.4662 29.7506 95.7886 30.5055 96.4657 31.129C97.5943 32.1792 98.9485 32.4746 101.012 32.3433C103.334 32.1792 105.526 31.0962 106.751 28.8317C107.3 27.8143 107.235 26.961 107.171 26.6657C107.106 26.3375 106.751 26.2062 106.558 26.6657C105.526 28.8973 103.592 31.2603 100.432 31.4572ZM97.1751 25.6483C97.562 24.9591 97.9167 24.3684 98.2714 23.7776C99.7868 21.2506 101.786 19.6097 102.56 20.0035C103.366 20.3973 103.011 23.1213 101.754 25.7468C100.238 28.8973 98.1424 31.2931 97.1106 30.4398C96.2078 29.685 96.369 27.7159 97.1751 25.6483Z" fill="#200F32"/>
<path d="M15.5 0C6.94118 0 0 6.93647 0 15.4895C0 24.0425 12.1824 43.4059 15.5 43.4C18.7118 43.3941 31 24.0425 31 15.4895C30.9941 6.93647 24.0588 0 15.5 0Z" fill="white"/>
<path d="M15.5002 0.760986C7.29929 0.760986 0.648376 7.4119 0.648376 15.6128C0.648376 23.8137 12.3213 42.3799 15.5002 42.3743C18.5777 42.3686 30.352 23.8137 30.352 15.6128C30.3464 7.4119 23.7011 0.760986 15.5002 0.760986Z" fill="#200F32"/>
<path d="M27.0633 14.9246C27.0633 21.2653 19.452 32.4761 15.4998 32.4761C11.8075 32.4761 3.93634 21.2653 3.93634 14.9246C3.93634 8.58384 9.11006 3.44434 15.4998 3.44434C21.8896 3.44434 27.0633 8.58384 27.0633 14.9246Z" fill="white"/>
<path fill-rule="evenodd" clip-rule="evenodd" d="M7.28965 23.151C7.69483 23.5595 8.36395 23.5203 8.7356 23.081C8.87648 22.9232 9.01173 22.7598 9.14697 22.5964L9.14706 22.5963C9.33869 22.3765 9.57542 22.2638 9.81215 22.2468H9.82906H9.84596C10.0883 22.2581 10.3251 22.3765 10.5111 22.5963C10.5505 22.6442 10.5914 22.6921 10.6322 22.74C10.6731 22.7879 10.714 22.8359 10.7534 22.8838C10.8831 23.0359 11.0352 23.1768 11.1987 23.2952C11.7003 23.6559 12.2076 23.3516 12.5627 22.957C13.2036 22.2482 13.8317 21.5235 14.459 20.7996C14.6648 20.5621 14.8705 20.3248 15.0765 20.0881C15.1316 20.0256 15.2034 19.943 15.2876 19.8463C15.8484 19.2011 16.9563 17.9265 17.3141 17.7941C17.7651 17.6307 18.2385 17.811 18.5598 18.1436C18.9648 18.5636 21.0711 20.9718 22.6084 22.7294C22.9943 23.1706 23.6715 23.2105 24.0654 22.7764C25.9282 20.7236 27.0633 17.9984 27.0633 15.0081C27.0633 8.62173 21.8862 3.44458 15.4998 3.44458C9.11349 3.44458 3.93634 8.62173 3.93634 15.0081C3.93634 18.1841 5.2168 21.0611 7.28965 23.151Z" fill="url(#paint0_linear)"/>
<path d="M15.4998 32.7221C19.4645 32.2301 27.0633 22.6348 28.407 10.3652C28.3957 9.55352 28.3393 8.75316 28.2153 7.97534C29.5512 10.2073 30.3233 12.817 30.3233 15.607C30.3233 23.8079 18.6504 42.3741 15.4715 42.3684C12.8281 42.3628 3.77043 28.6721 1.26788 19.6144C4.90897 27.9281 10.9399 32.9645 15.4998 32.7221Z" fill="url(#paint1_linear)"/>
<path d="M15.5002 32.4761C11.3177 32.2301 2.70661 19.6825 2.56474 10.3652C2.58729 9.55352 2.63238 8.75316 2.75638 7.97534C1.42056 10.213 0.648376 12.8226 0.648376 15.6126C0.648376 23.8135 12.3213 42.3797 15.5002 42.3741C17.4222 42.3684 22.7373 35.1257 26.4573 27.6913C27.8495 24.9013 22.8685 32.9095 15.5002 32.4761Z" fill="url(#paint2_linear)"/>
<defs>
<linearGradient id="paint0_linear" x1="3.60505" y1="15.1852" x2="27.403" y2="15.1852" gradientUnits="userSpaceOnUse">
<stop stop-color="#FDC635"/>
<stop offset="1" stop-color="#FFA901"/>
</linearGradient>
<linearGradient id="paint1_linear" x1="26.4504" y1="-7.83476" x2="16.4854" y2="17.3289" gradientUnits="userSpaceOnUse">
<stop stop-color="#3A1B5A"/>
<stop offset="0.3726" stop-color="#200F32"/>
</linearGradient>
<linearGradient id="paint2_linear" x1="16.7545" y1="29.7471" x2="-4.39443" y2="-1.00838" gradientUnits="userSpaceOnUse">
<stop stop-color="#3A1B5A"/>
<stop offset="0.6775" stop-color="#200F32"/>
</linearGradient>
</defs>
</svg>
