<svg width="138" height="56" viewBox="0 0 138 56" fill="none" xmlns="http://www.w3.org/2000/svg">
<path d="M66.4136 19.0733C63.3009 23.8045 60.1467 29.9719 58.4866 34.7031C57.532 37.4067 57.947 38.0826 58.5696 39.0119C59.1091 39.8145 59.8562 40.5327 60.6862 40.9551C61.5993 41.4198 62.5953 41.462 64.1725 41.1663C66.4966 40.7439 69.6093 39.2654 71.4355 37.2377C73.2201 35.2523 73.2616 32.76 72.39 31.4504C71.8505 30.6478 71.1864 30.0564 70.3979 29.6762C73.4691 28.3245 75.6688 26.2123 76.8724 24.6493C78.2834 22.7906 79.072 20.425 78.325 17.5948C77.5779 14.7222 75.5443 14.0463 73.4276 14.1731C70.6469 14.342 66.9116 16.412 64.0064 16.6654C63.5084 16.7077 63.3839 16.9189 63.5914 17.3835C63.8819 18.0594 64.7535 18.9888 66.4136 19.0733ZM64.5045 28.4934C65.7081 26.339 66.9116 24.3536 67.7417 22.7906C68.7793 20.8475 69.0698 19.5802 68.9868 18.6508C71.8505 17.7215 75.9593 15.7783 76.7893 17.9749C77.8269 20.8475 72.7221 26.5503 64.5045 28.4934ZM67.7002 30.6056C71.477 30.8168 71.477 32.7177 69.9414 34.6609C68.1567 36.8998 64.5875 38.6317 61.9313 38.9697C60.6032 39.1387 60.1467 38.6317 60.6032 37.1532C61.2257 35.0411 62.2633 32.8022 63.3839 30.6056C63.9649 30.9013 64.795 31.028 65.9571 30.9013C66.5381 30.8168 67.1192 30.7323 67.7002 30.6056Z" fill="white"/>
<path d="M78.9819 33.4359C81.8871 35.8437 84.6678 34.7454 86.7014 32.2108C88.4445 30.0564 88.7766 27.4796 88.0295 26.4658C87.3655 25.5364 86.6184 24.9028 85.5808 24.2691C83.5057 23.0441 79.2724 25.2407 76.5747 30.6901C73.877 36.1394 75.7031 41.4198 80.974 41.3353C84.1697 41.293 87.3655 39.3499 89.1086 36.773C89.8556 35.6747 89.9801 34.4919 89.8141 34.154C89.6481 33.7738 89.3161 33.7738 89.1086 34.1117C87.324 36.8998 84.2942 40.2792 80.8495 40.1102C78.6498 39.9835 77.6538 37.3222 78.9819 33.4359ZM79.3554 32.5065C79.4384 32.2953 79.5629 32.0418 79.6874 31.7884C81.6381 27.7753 85.0828 25.2407 85.9544 25.9589C86.5354 26.4235 85.6223 28.6202 84.2942 30.3944C83.0907 31.9996 81.389 33.816 79.3554 32.5065Z" fill="white"/>
<path d="M99.9123 18.4819C96.0525 24.4381 91.5702 33.6048 90.6157 37.0688C90.0761 39.0964 90.5742 40.3637 91.1552 40.9129C91.4457 41.2086 91.6532 41.2086 91.8192 40.7861C95.0565 33.0557 98.5842 27.1417 101.074 22.5372C102.195 20.4673 102.485 19.0733 102.444 18.0594C104.851 17.637 107.466 17.2146 109.499 17.4258C110.039 17.468 110.122 17.1301 109.998 16.7921C109.375 15.1447 107.798 14.68 106.055 14.6377C103.689 14.5533 96.7996 16.1163 93.1058 15.8206C92.6908 15.7783 92.5248 15.9895 92.6493 16.3697C93.1058 17.9327 94.8905 18.862 97.3806 18.7776C98.1277 18.7353 98.9577 18.6508 99.9123 18.4819Z" fill="white"/>
<path d="M105.803 27.3106C106.84 24.6493 107.172 22.1992 105.886 22.2415C104.35 22.2837 100.739 27.2684 103.105 28.8314C101.57 31.0703 98.7888 35.0411 97.8342 36.8998C96.7137 39.0542 96.7137 40.9973 97.9173 42.2646C98.2908 42.6448 98.5398 42.4336 98.6228 42.0534C99.4114 38.2093 103.396 32.2108 104.973 29.2538C106.218 29.2538 108.002 28.8736 109.829 27.6486C108.168 29.5917 105.761 32.591 104.848 35.379C103.811 38.5473 105.014 41.3353 108.002 41.462C110.202 41.5465 112.609 39.7723 113.564 37.3222C114.02 36.1817 113.979 35.1678 113.771 34.7031C113.605 34.3652 113.356 34.4074 113.19 34.7454C111.862 37.7869 109.87 40.4059 108.251 40.3215C107.048 40.2792 106.55 38.6317 107.214 36.4351C107.878 34.2385 109.912 31.5772 111.779 29.4228C112.983 28.0288 111.987 26.1701 111.198 25.283C110.908 24.945 110.576 25.0295 110.078 25.3675C108.542 26.4658 107.131 27.1417 105.803 27.3106Z" fill="white"/>
<path d="M122.283 21.2699C121.743 20.1293 120.54 19.6224 119.876 20.3405C119.211 21.0587 119.004 22.326 119.668 23.4665C120.291 24.5648 121.453 24.6916 121.992 24.1002C122.532 23.5088 122.822 22.3682 122.283 21.2699ZM115.518 41.293C117.842 41.293 120.457 39.5188 121.702 36.8998C122.2 35.8437 122.324 34.9566 121.992 34.2807C121.826 33.9428 121.536 33.9005 121.328 34.2807C120.083 37.1955 117.8 39.9835 115.933 40.068C114.605 40.1525 114.522 38.505 115.518 36.0549C116.389 33.9428 118.132 31.0703 119.004 29.2116C120 27.0994 119.668 25.283 119.045 24.6071C118.713 24.2269 118.423 24.3536 118.049 24.8605C116.514 27.0572 113.775 32.0418 112.737 35.1256C111.575 38.5895 112.364 41.293 115.518 41.293Z" fill="white"/>
<path d="M129.272 40.4904C130.849 39.5188 132.385 37.4912 133.63 34.7031C135.165 31.2392 136.079 27.4796 134.086 25.3252C132.302 23.4243 129.853 24.6071 128.027 26.2123C128.068 25.4942 127.985 24.8605 127.778 24.3114C127.57 23.8045 127.197 23.72 126.782 24.2691C124.167 27.8175 117.195 41.2086 115.95 45.3061C115.161 47.8829 115.369 49.0657 115.991 49.9528C116.24 50.333 116.531 50.2485 116.697 49.8684C118.689 45.1794 120.805 40.8706 122.756 37.2377C122.881 38.2938 123.296 39.2654 124.167 40.068C125.62 41.4198 127.363 41.8 130.019 41.631C133.007 41.4198 135.83 40.0258 137.407 37.111C138.112 35.8015 138.029 34.7031 137.946 34.323C137.863 33.9005 137.407 33.7316 137.158 34.323C135.83 37.1955 133.339 40.237 129.272 40.4904ZM125.08 33.0134C125.578 32.1263 126.035 31.366 126.491 30.6056C128.442 27.3529 131.015 25.2407 132.011 25.7476C133.049 26.2546 132.592 29.7607 130.974 33.1402C129.023 37.1955 126.325 40.2792 124.997 39.1809C123.835 38.2093 124.043 35.6747 125.08 33.0134Z" fill="white"/>
<path d="M19.951 0C8.93442 0 0 8.92837 0 19.9375C0 30.9466 15.6807 55.8704 19.951 55.8628C24.0851 55.8553 39.902 30.9466 39.902 19.9375C39.8945 8.92837 30.9676 0 19.951 0Z" fill="white"/>
<path d="M19.9515 0.979492C9.39558 0.979492 0.834778 9.54029 0.834778 20.0962C0.834778 30.6521 15.8597 54.5498 19.9515 54.5425C23.9127 54.5353 39.0682 30.6521 39.0682 20.0962C39.0609 9.54029 30.5074 0.979492 19.9515 0.979492Z" fill="#200F32"/>
<path d="M34.8349 19.21C34.8349 27.3716 25.0379 41.8017 19.9508 41.8017C15.1981 41.8017 5.06671 27.3716 5.06671 19.21C5.06671 11.0485 11.7261 4.43311 19.9508 4.43311C28.1755 4.43311 34.8349 11.0485 34.8349 19.21Z" fill="white"/>
<path fill-rule="evenodd" clip-rule="evenodd" d="M9.38287 29.7993C9.90441 30.3252 10.7657 30.2747 11.2441 29.7093C11.4255 29.5061 11.5996 29.2958 11.7737 29.0854C12.0204 28.8024 12.3251 28.6573 12.6298 28.6356H12.6515H12.6733C12.9853 28.6501 13.29 28.8024 13.5294 29.0854C13.5802 29.147 13.6328 29.2087 13.6854 29.2704C13.738 29.332 13.7906 29.3937 13.8414 29.4554C14.0082 29.6512 14.2041 29.8326 14.4145 29.985C15.0602 30.4493 15.7131 30.0575 16.1702 29.5497C16.9951 28.6373 17.8036 27.7044 18.6111 26.7726C18.876 26.467 19.1407 26.1615 19.4059 25.8569C19.4768 25.7765 19.5693 25.6702 19.6775 25.5456C20.3994 24.7151 21.8255 23.0745 22.2861 22.9042C22.8665 22.6938 23.4759 22.9259 23.8894 23.354C24.4107 23.8946 27.1219 26.9944 29.1007 29.2567C29.5974 29.8246 30.4692 29.8759 30.9762 29.3172C33.3739 26.6749 34.8349 23.1672 34.8349 19.3182C34.8349 11.0979 28.1711 4.43408 19.9508 4.43408C11.7305 4.43408 5.06671 11.0979 5.06671 19.3182C5.06671 23.4062 6.71483 27.1094 9.38287 29.7993Z" fill="url(#paint0_linear)"/>
<path d="M19.9508 42.1188C25.054 41.4854 34.8349 29.1348 36.5644 13.3417C36.5499 12.297 36.4774 11.2668 36.3178 10.2656C38.0372 13.1386 39.0311 16.4976 39.0311 20.0888C39.0311 30.6447 24.0062 54.5424 19.9144 54.5351C16.5119 54.5279 4.8532 36.9057 1.63202 25.247C6.3187 35.948 14.0815 42.4307 19.9508 42.1188Z" fill="url(#paint1_linear)"/>
<path d="M19.9515 41.8021C14.568 41.4854 3.48406 25.3346 3.30145 13.3417C3.33047 12.297 3.38851 11.2668 3.54812 10.2656C1.8287 13.1458 0.834778 16.5049 0.834778 20.096C0.834778 30.6519 15.8597 54.5496 19.9515 54.5424C22.4254 54.5351 29.2668 45.2125 34.055 35.6433C35.847 32.0521 29.4357 42.36 19.9515 41.8021Z" fill="url(#paint2_linear)"/>
<defs>
<linearGradient id="paint0_linear" x1="4.64028" y1="19.5461" x2="35.2721" y2="19.5461" gradientUnits="userSpaceOnUse">
<stop stop-color="#FDC635"/>
<stop offset="1" stop-color="#FFA901"/>
</linearGradient>
<linearGradient id="paint1_linear" x1="34.046" y1="-10.0845" x2="21.2194" y2="22.3051" gradientUnits="userSpaceOnUse">
<stop stop-color="#3A1B5A"/>
<stop offset="0.3726" stop-color="#200F32"/>
</linearGradient>
<linearGradient id="paint2_linear" x1="21.5659" y1="38.2895" x2="-5.65614" y2="-1.29788" gradientUnits="userSpaceOnUse">
<stop stop-color="#3A1B5A"/>
<stop offset="0.6775" stop-color="#200F32"/>
</linearGradient>
</defs>
</svg>
