<svg width="30" height="16" viewBox="0 0 30 16" fill="none" xmlns="http://www.w3.org/2000/svg">
<path opacity="0.1" fill-rule="evenodd" clip-rule="evenodd" d="M29.1667 0C29.6667 0 30 0.32 30 0.8V2.4C30 2.88 29.6667 3.2 29.1667 3.2H10.8333C10.3333 3.2 10 2.88 10 2.4V0.8C10 0.32 10.3333 0 10.8333 0H29.1667ZM29.1667 6.4C29.6667 6.4 30 6.72 30 7.2V8.8C30 9.28 29.6667 9.6 29.1667 9.6H10.8333C10.3333 9.6 10 9.28 10 8.8V7.2C10 6.72 10.3333 6.4 10.8333 6.4H29.1667ZM30 13.6C30 13.12 29.6667 12.8 29.1667 12.8H10.8333C10.3333 12.8 10 13.12 10 13.6V15.2C10 15.68 10.3333 16 10.8333 16H29.1667C29.6667 16 30 15.68 30 15.2V13.6ZM4.07275 3.31893L0.118741 7.23316C-0.0390163 7.39176 -0.0390167 7.64821 0.115384 7.8068L4.0694 11.721C4.22715 11.8796 4.48225 11.8796 4.64001 11.721L4.87832 11.4815C5.03608 11.3229 5.03608 11.0664 4.87832 10.9078L1.44793 7.51998L4.88168 4.13214C5.03944 3.97355 5.03944 3.7171 4.88168 3.5585L4.64337 3.31893C4.48561 3.16033 4.23051 3.16033 4.07275 3.31893Z" fill="black"/>
</svg>
