<svg width="16" height="20" viewBox="0 0 16 20" fill="none" xmlns="http://www.w3.org/2000/svg">
<path fill-rule="evenodd" clip-rule="evenodd" d="M0.607849 7.39213C0.607849 3.31608 3.92393 0 7.99998 0C12.0761 0 15.3922 3.31608 15.3922 7.39205C15.3922 9.7329 13.4074 13.2414 12.2242 15.1243C11.4518 16.3536 10.6206 17.529 9.88354 18.4341C8.70678 19.879 8.30789 19.9999 8.00006 19.9999C7.69676 19.9999 7.27426 19.8791 6.09383 18.435C5.35841 17.5353 4.52755 16.3591 3.75439 15.1234C2.57927 13.245 0.607849 9.74282 0.607849 7.39213ZM7.99302 18.7598C8.50323 18.3353 9.89518 16.6723 11.4114 14.2114C13.196 11.3145 14.2197 8.82903 14.2196 7.39213C14.2196 3.96262 11.4295 1.17253 7.99998 1.17253C4.57047 1.17253 1.78038 3.96262 1.78046 7.39213C1.78046 8.83732 2.79846 11.3257 4.57344 14.2191C6.11079 16.725 7.48015 18.3484 7.99302 18.7598ZM3.64062 7.39221C3.64062 4.98851 5.59626 3.03296 7.99995 3.03296C10.4036 3.03296 12.3593 4.98851 12.3593 7.39221C12.3593 9.7959 10.4036 11.7515 7.99995 11.7515C5.59626 11.7515 3.64062 9.7959 3.64062 7.39221ZM4.81316 7.39213C4.81316 9.14929 6.24279 10.5788 7.99995 10.5788C9.75719 10.5788 11.1867 9.14937 11.1867 7.39221C11.1867 5.63505 9.75711 4.20549 7.99995 4.20549C6.24279 4.20549 4.81316 5.63497 4.81316 7.39213Z" fill="#FFA901"/>
</svg>
