<svg width="21" height="21" viewBox="0 0 21 21" fill="none" xmlns="http://www.w3.org/2000/svg">
<path fill-rule="evenodd" clip-rule="evenodd" d="M6.99324 3.49987C6.99324 3.64831 6.95612 3.78789 6.89111 3.91028L8.48703 5.50615C8.82873 5.84785 8.82873 6.40189 8.48703 6.7436C8.14533 7.0853 7.59129 7.0853 7.24959 6.7436L4.62951 4.12352C4.58628 4.08094 4.54748 4.0339 4.51381 3.98312C4.51185 3.98015 4.51007 3.97711 4.50828 3.97407C4.50688 3.97168 4.50548 3.9693 4.50401 3.96696C4.49219 3.9483 4.48067 3.92947 4.47029 3.90991C4.4679 3.90537 4.46576 3.90075 4.46361 3.89613C4.4621 3.89289 4.4606 3.88966 4.45901 3.88645C4.45028 3.86881 4.44162 3.85113 4.43412 3.83284C4.43181 3.82725 4.42982 3.82158 4.42783 3.81591C4.42664 3.81251 4.42545 3.80911 4.42419 3.80573L4.42293 3.80233C4.41682 3.78595 4.41072 3.76958 4.40565 3.7527C4.4037 3.74615 4.40209 3.73952 4.40048 3.7329C4.39956 3.7291 4.39864 3.7253 4.39765 3.72152C4.39692 3.71873 4.39619 3.71593 4.39545 3.71314C4.39172 3.69898 4.38799 3.68482 4.38514 3.67029C4.38328 3.6609 4.38197 3.65142 4.38067 3.64195C4.38009 3.6377 4.3795 3.63344 4.37887 3.6292C4.37822 3.62485 4.37753 3.62052 4.37683 3.61619C4.37523 3.60621 4.37363 3.59624 4.37263 3.58609C4.36984 3.55771 4.36837 3.52928 4.36833 3.50082L4.36829 3.49987L4.36833 3.49893C4.36837 3.47051 4.36984 3.44204 4.37263 3.4137C4.37364 3.4035 4.37524 3.39351 4.37684 3.38352C4.37753 3.3792 4.37822 3.37488 4.37887 3.37055C4.37946 3.36655 4.38 3.36255 4.38055 3.35854C4.38187 3.34884 4.38319 3.33914 4.3851 3.3295C4.38793 3.31506 4.39163 3.30099 4.39534 3.2869C4.3961 3.28401 4.39686 3.28112 4.39761 3.27823C4.39859 3.27447 4.39951 3.27069 4.40043 3.26692C4.40204 3.26029 4.40365 3.25366 4.40561 3.2471C4.41065 3.23042 4.41667 3.21424 4.4227 3.19803C4.4232 3.19669 4.42369 3.19536 4.42419 3.19402C4.42549 3.19054 4.42671 3.18704 4.42794 3.18354C4.42989 3.17797 4.43183 3.1724 4.43408 3.16691C4.44162 3.14862 4.45028 3.13094 4.45897 3.1133C4.46043 3.11033 4.46182 3.10733 4.46321 3.10432C4.46546 3.09947 4.46772 3.09461 4.47025 3.08984C4.48063 3.07028 4.49215 3.05145 4.50397 3.03279C4.50539 3.03051 4.50675 3.0282 4.5081 3.0259C4.50993 3.02278 4.51176 3.01967 4.51377 3.01663C4.54744 2.96581 4.5862 2.91881 4.62947 2.87623L7.24955 0.256154C7.59125 -0.0855474 8.14529 -0.0855474 8.48699 0.256154C8.82869 0.597855 8.82869 1.15189 8.48699 1.4936L6.89111 3.08947C6.95612 3.21182 6.99324 3.35144 6.99324 3.49987ZM8.39783 3.49983C8.39783 3.9837 8.78981 4.37482 9.27281 4.37482H10.8504C11.3343 4.37482 11.7254 3.9837 11.7254 3.49983C11.7254 3.01597 11.3343 2.62485 10.8504 2.62485H9.27281C8.78981 2.62485 8.39783 3.01597 8.39783 3.49983ZM14.0049 4.37488H15.5825C16.0664 4.37488 16.4575 3.98376 16.4575 3.49989C16.4575 3.01603 16.0664 2.62491 15.5825 2.62491H14.0049C13.5219 2.62491 13.1299 3.01603 13.1299 3.49989C13.1299 3.98376 13.5219 4.37488 14.0049 4.37488ZM7.44069 10.5C7.44069 10.9839 7.04956 11.375 6.5657 11.375H4.98894C4.50508 11.375 4.11395 10.9839 4.11395 10.5C4.11395 10.0162 4.50508 9.62506 4.98894 9.62506H6.5657C7.04956 9.62506 7.44069 10.0162 7.44069 10.5ZM0.801238 13.454C0.911488 13.5004 1.02613 13.5223 1.13986 13.5223C1.48197 13.5223 1.80661 13.3202 1.9466 12.9859C2.09885 12.6237 2.3351 12.2938 2.63086 12.0322C2.99311 11.7119 3.02724 11.1589 2.70699 10.7976C2.38674 10.4345 1.832 10.4021 1.47238 10.7214C0.98064 11.1563 0.585988 11.7049 0.333127 12.3086C0.14589 12.754 0.35589 13.2668 0.801238 13.454ZM5.36607 16.625H6.9437C7.4276 16.625 7.81868 17.0162 7.81868 17.5C7.81868 17.9839 7.42756 18.375 6.9437 18.375H5.36607C4.88307 18.375 4.49109 17.9839 4.49109 17.5C4.49109 17.0162 4.88307 16.625 5.36607 16.625ZM2.85315 16.1447C2.53027 15.9145 2.25904 15.6118 2.06913 15.2671C1.83374 14.8453 1.30263 14.693 0.878245 14.9258C0.456481 15.1612 0.30337 15.6932 0.537856 16.1167C0.85462 16.6872 1.30522 17.1894 1.83986 17.5701C1.99387 17.6803 2.17061 17.732 2.34562 17.732C2.61948 17.732 2.889 17.6042 3.05962 17.3645C3.33963 16.9706 3.2469 16.4238 2.85315 16.1447ZM19.668 6.15391C19.3626 6.15391 19.0668 5.99465 18.9059 5.71029C18.7107 5.36728 18.4377 5.06716 18.1131 4.84141C17.7167 4.56579 17.6179 4.01979 17.8944 3.62256C18.1691 3.22532 18.716 3.12733 19.1124 3.40382C19.6496 3.77833 20.1055 4.27708 20.4284 4.84757C20.6672 5.26757 20.5193 5.80216 20.0985 6.04018C19.9628 6.11716 19.8141 6.15391 19.668 6.15391ZM20.1913 7.51106C19.7441 7.32731 19.2331 7.54256 19.0502 7.99058C18.9015 8.35369 18.6679 8.6862 18.3748 8.95046C18.016 9.2742 17.988 9.82808 18.3118 10.186C18.4841 10.3776 18.723 10.4747 18.961 10.4747C19.171 10.4747 19.3801 10.4012 19.5472 10.2498C20.0355 9.8097 20.4231 9.25673 20.6707 8.65121C20.8528 8.20406 20.6375 7.69391 20.1913 7.51106ZM14.4539 9.62503H16.0315C16.5145 9.62503 16.9066 10.0162 16.9065 10.5C16.9065 10.9839 16.5145 11.375 16.0315 11.375H14.4539C13.97 11.375 13.5789 10.9839 13.5789 10.5C13.5789 10.0162 13.97 9.62503 14.4539 9.62503ZM11.2986 11.375C11.7816 11.375 12.1736 10.9839 12.1736 10.5C12.1736 10.0162 11.7816 9.62506 11.2986 9.62506H9.72099C9.23713 9.62506 8.84601 10.0162 8.84601 10.5C8.84601 10.9839 9.23713 11.375 9.72099 11.375H11.2986ZM11.6757 16.625C12.1596 16.625 12.5507 17.0162 12.5507 17.5C12.5507 17.9839 12.1596 18.375 11.6757 18.375H10.0981C9.61513 18.375 9.22314 17.9839 9.22314 17.5C9.22314 17.0162 9.61513 16.625 10.0981 16.625H11.6757ZM16.5163 17.9099C16.5205 17.9021 16.5239 17.8941 16.5277 17.8862C16.5364 17.8686 16.545 17.851 16.5525 17.8328C16.5548 17.8273 16.5568 17.8216 16.5587 17.816L16.5625 17.8055L16.5635 17.8029L16.5635 17.8029C16.5697 17.7863 16.5759 17.7697 16.581 17.7526C16.5823 17.7484 16.5834 17.7442 16.5845 17.7399L16.5891 17.7213L16.5915 17.7121C16.5951 17.6983 16.5987 17.6844 16.6015 17.6702C16.6034 17.6606 16.6048 17.6509 16.6061 17.6412C16.6067 17.6371 16.6072 17.6329 16.6078 17.6288L16.6099 17.6153C16.6115 17.6056 16.6131 17.5959 16.614 17.586C16.6197 17.5287 16.6197 17.4709 16.614 17.4136C16.6126 17.3991 16.61 17.385 16.6078 17.3708L16.6052 17.3518C16.6047 17.3485 16.6042 17.3452 16.6037 17.3419C16.6031 17.3377 16.6023 17.3335 16.6015 17.3294C16.5986 17.3145 16.5948 17.3001 16.591 17.2856L16.5891 17.2783C16.5863 17.2679 16.5841 17.2573 16.581 17.247C16.5759 17.2298 16.5697 17.2133 16.5634 17.1966L16.5625 17.1941L16.5588 17.1837L16.5588 17.1836C16.5568 17.178 16.5548 17.1723 16.5525 17.1668C16.545 17.1486 16.5364 17.131 16.5277 17.1134L16.5224 17.1021C16.5204 17.0979 16.5185 17.0937 16.5163 17.0897C16.506 17.0702 16.4945 17.0515 16.4828 17.0329L16.4784 17.0256C16.4766 17.0225 16.4748 17.0195 16.4728 17.0165C16.4391 16.9658 16.4004 16.9188 16.3572 16.8762L13.7371 14.2561C13.3954 13.9144 12.8413 13.9144 12.4996 14.2561C12.1579 14.5978 12.1579 15.1518 12.4996 15.4935L14.0955 17.0894C14.0305 17.2118 13.9934 17.3513 13.9934 17.4998C13.9934 17.6482 14.0305 17.7878 14.0955 17.9102L12.4996 19.5061C12.1579 19.8478 12.1579 20.4018 12.4996 20.7435C12.8413 21.0852 13.3954 21.0852 13.7371 20.7435L16.3572 18.1234C16.4004 18.0808 16.4392 18.0338 16.4728 17.9831C16.4748 17.9801 16.4766 17.977 16.4784 17.974L16.4828 17.9667C16.4945 17.9482 16.506 17.9294 16.5163 17.9099Z" fill="#FFA901"/>
</svg>
