<svg width="48" height="48" viewBox="0 0 48 48" fill="none" xmlns="http://www.w3.org/2000/svg">
<path fill-rule="evenodd" clip-rule="evenodd" d="M9.75844 0C6.22165 0 3.35318 2.86951 3.35318 6.40526C3.35318 9.94308 6.22165 12.8116 9.75844 12.8126C13.2942 12.8126 16.1627 9.94412 16.1627 6.40526C16.1627 2.86847 13.2942 0 9.75844 0ZM38.8037 0C35.2669 0 32.3964 2.86951 32.3964 6.40526C32.3964 9.94308 35.2669 12.8126 38.8037 12.8126C42.3405 12.8126 45.2079 9.94412 45.2079 6.40526C45.2079 2.86847 42.3394 0 38.8037 0ZM0.255528 32.5001C-0.424148 30.929 0.298912 29.1048 1.86898 28.4272C3.44008 27.7455 5.26322 28.4696 5.94289 30.0407C8.93119 36.95 15.9934 41.4154 23.9377 41.4154C32.0649 41.4154 39.1705 36.9531 42.038 30.0489C42.5338 28.8569 43.6876 28.138 44.9013 28.138C45.2979 28.138 45.6997 28.2134 46.0891 28.3745C47.6695 29.0325 48.4184 30.8464 47.7625 32.4257C43.9303 41.652 34.5781 47.6131 23.9388 47.613C13.5216 47.611 4.22511 41.6798 0.255528 32.5001Z" fill="#FFA901"/>
</svg>
