<svg width="12" height="13" viewBox="0 0 12 13" fill="none" xmlns="http://www.w3.org/2000/svg">
<path d="M5.88118 13C2.63815 13 0 10.3554 0 7.10865C0 3.86148 2.63815 1.21822 5.88118 1.21822C6.09659 1.21822 6.31429 1.23064 6.53061 1.25501V0.30294C6.53061 0.180596 6.60594 0.0692908 6.71709 0.0219171C6.83283 -0.0231568 6.96097 0.00213977 7.04915 0.089988L9.13294 2.18133C9.25144 2.29999 9.25144 2.48949 9.13294 2.60999L7.05007 4.70593C6.96143 4.7924 6.83283 4.81907 6.71709 4.7717C6.60594 4.72387 6.53061 4.61348 6.53061 4.4916V3.43558C6.31521 3.39603 6.09842 3.37809 5.88118 3.37809C3.82679 3.37809 2.15498 5.0518 2.15498 7.10865C2.15498 9.16503 3.82725 10.8401 5.88118 10.8401C7.93512 10.8401 9.60647 9.16457 9.60647 7.10865C9.60647 6.94169 9.74196 6.80509 9.91051 6.80509H11.4579C11.6255 6.80509 11.7619 6.94169 11.7619 7.10865C11.7619 10.3554 9.12192 13 5.88118 13Z" fill="#FFA901"/>
</svg>
