<svg width="19" height="19" viewBox="0 0 19 19" fill="none" xmlns="http://www.w3.org/2000/svg">
<path d="M0.0255241 7.01386C0.0864735 6.81837 0.246466 6.67873 0.440742 6.64681L6.23095 5.78504L8.83655 0.299226C8.92416 0.115701 9.1032 0 9.29748 0C9.49175 0 9.67079 0.115701 9.75841 0.303216L12.3297 5.80499L18.1199 6.70665C18.3142 6.73857 18.4742 6.87821 18.5351 7.07371C18.5961 7.2692 18.5428 7.48464 18.4018 7.62428L14.2001 11.8893L15.1715 17.9296C15.2058 18.1331 15.1258 18.3366 14.9658 18.4563C14.8782 18.5241 14.7715 18.56 14.6649 18.56C14.581 18.56 14.501 18.5401 14.4249 18.4962L9.25558 15.6276L4.07105 18.4642C3.99486 18.5041 3.91487 18.5241 3.83487 18.5241C3.55298 18.5241 3.32061 18.2807 3.32061 17.9855C3.32061 17.9416 3.32442 17.9017 3.33585 17.8618L4.33771 11.8573L0.162661 7.56843C0.0140953 7.4248 -0.0354271 7.20936 0.0255241 7.01386Z" fill="#FDC635"/>
</svg>
