<svg width="19" height="19" viewBox="0 0 19 19" fill="none" xmlns="http://www.w3.org/2000/svg">
<path d="M0.465467 7.01386C0.526417 6.81837 0.686409 6.67873 0.880686 6.64681L6.67089 5.78504L9.27649 0.299226C9.3641 0.115701 9.54314 -1.27843e-08 9.73742 -1.27843e-08C9.9317 -1.27843e-08 10.1107 0.115701 10.1984 0.303216L12.7697 5.80499L18.5599 6.70665C18.7541 6.73857 18.9141 6.87821 18.9751 7.07371C19.036 7.2692 18.9827 7.48464 18.8418 7.62428L14.6401 11.8893L15.6114 17.9296C15.6457 18.1331 15.5657 18.3366 15.4057 18.4563C15.3181 18.5241 15.2115 18.56 15.1048 18.56C15.021 18.56 14.941 18.5401 14.8648 18.4962L9.69552 15.6276L4.51099 18.4642C4.43481 18.5041 4.35481 18.5241 4.27482 18.5241C3.99292 18.5241 3.76055 18.2807 3.76055 17.9855C3.76055 17.9416 3.76436 17.9017 3.77579 17.8618L4.77765 11.8573L0.602602 7.56843C0.454039 7.4248 0.404518 7.20935 0.465467 7.01386ZM5.68427 11.2868C5.80617 11.4105 5.8595 11.59 5.82903 11.7656L4.95669 17.004L9.45934 14.5424C9.6079 14.4586 9.78694 14.4626 9.93931 14.5424L14.4267 17.032L13.5849 11.7855C13.5582 11.61 13.6115 11.4344 13.7334 11.3107L17.3752 7.60832L12.3506 6.82634C12.183 6.79842 12.0383 6.6907 11.9659 6.53111L9.73361 1.75546L7.47086 6.51914C7.39467 6.67873 7.24992 6.78645 7.0823 6.81438L2.05396 7.56444L5.68427 11.2868Z" fill="#FDC635"/>
</svg>
