<svg width="330" height="24" viewBox="0 0 330 24" fill="none" xmlns="http://www.w3.org/2000/svg">
<g clip-path="url(#clip0)">
<path d="M1.00651 8.06719C0.469703 8.06719 0 7.66383 0 7.05878C0 6.52097 0.402603 6.05038 0.939406 6.05038C2.34852 5.98315 3.69052 5.98315 5.03253 5.98315C5.63644 5.98315 6.03904 6.45374 6.03904 7.05878C6.03904 7.5966 5.56934 8.06719 5.03253 8.06719C3.75763 7.99996 2.41562 7.99996 1.00651 8.06719Z" fill="#FDC635"/>
<path d="M55.2908 24C53.9488 23.9328 52.6068 23.7983 51.2648 23.5294C49.9228 23.2605 48.5137 22.9244 47.1717 22.521C46.6349 22.3866 46.2994 21.7815 46.5007 21.2437C46.6349 20.7059 47.2388 20.3697 47.7756 20.5714C49.0505 20.9076 50.3925 21.2437 51.6674 21.5126C52.9423 21.7815 54.1501 21.916 55.3579 21.9832C55.8947 21.9832 56.3644 22.4538 56.2973 23.0588C56.2973 23.5966 55.8276 24 55.2908 24ZM60.5918 23.7311C60.1221 23.7311 59.6524 23.395 59.5853 22.8571C59.5182 22.3193 59.8537 21.7815 60.3905 21.7143C62.8061 21.3109 65.1546 20.5042 67.7044 19.3613C68.1741 19.0924 68.778 19.3613 69.0464 19.8319C69.3148 20.3025 69.0464 20.9076 68.5767 21.1765C65.8927 22.4538 63.3429 23.3277 60.726 23.7311C60.726 23.7311 60.6589 23.7311 60.5918 23.7311ZM157.82 22.3193C157.284 22.3193 156.814 21.8487 156.814 21.3109C156.814 20.7731 157.216 20.3025 157.82 20.3025C158.223 20.3025 158.626 20.3025 159.095 20.2353C161.377 20.1008 163.524 19.8319 165.537 19.3613C166.074 19.2269 166.61 19.563 166.745 20.1008C166.879 20.6387 166.543 21.1765 166.007 21.3109C163.859 21.7815 161.578 22.1176 159.162 22.1849C158.693 22.2521 158.29 22.3193 157.82 22.3193ZM152.519 22.0504C152.452 22.0504 152.452 22.0504 152.385 22.0504C149.634 21.7143 147.017 21.042 144.4 20.1008C143.863 19.8992 143.595 19.2941 143.796 18.8235C143.998 18.2857 144.602 18.0168 145.071 18.2185C147.487 19.1597 149.97 19.7647 152.586 20.0336C153.123 20.1008 153.526 20.5714 153.459 21.1765C153.459 21.6471 152.989 22.0504 152.519 22.0504ZM42.4075 20.8403C42.2733 20.8403 42.1391 20.8403 42.0049 20.7731C39.3209 19.6975 36.9053 18.4202 34.691 17.2773C34.2213 17.0084 34.02 16.4034 34.2884 15.9328C34.5568 15.4622 35.1607 15.2605 35.6304 15.5294C37.7776 16.6723 40.1932 17.8824 42.743 18.958C43.2798 19.1597 43.4811 19.7647 43.2798 20.3025C43.2127 20.5714 42.8101 20.8403 42.4075 20.8403ZM170.838 19.7647C170.435 19.7647 170.033 19.4958 169.898 19.1597C169.697 18.6218 169.965 18.084 170.435 17.8151C172.65 16.9412 174.797 15.7311 177.279 14.1176C177.749 13.7815 178.353 13.916 178.689 14.3866C178.957 14.8571 178.89 15.4622 178.42 15.7983C175.803 17.479 173.522 18.6891 171.173 19.6303C171.039 19.7647 170.905 19.7647 170.838 19.7647ZM249.412 19.6975C247.399 19.6975 245.453 19.563 243.575 19.2941C243.038 19.2269 242.635 18.6891 242.702 18.1513C242.769 17.6134 243.306 17.2101 243.843 17.2773C245.588 17.5462 247.467 17.6807 249.345 17.6807C249.949 17.6807 250.553 17.6807 251.157 17.6134H251.627C252.164 17.6134 252.633 18.0168 252.7 18.5546C252.767 19.0924 252.298 19.563 251.761 19.6303H251.291C250.687 19.6975 250.016 19.6975 249.412 19.6975ZM256.995 19.0252C256.525 19.0252 256.122 18.6891 255.988 18.2185C255.921 17.6807 256.257 17.1429 256.793 17.0756C259.209 16.605 261.558 16 264.309 14.9244C264.846 14.7227 265.382 14.9916 265.584 15.5294C265.785 16.0672 265.517 16.605 264.98 16.8067C262.094 17.8824 259.679 18.5546 257.129 19.0252C257.129 19.0252 257.062 19.0252 256.995 19.0252ZM72.8711 18.6891C72.5356 18.6891 72.2001 18.5546 71.9988 18.2185C71.7304 17.7479 71.8646 17.1429 72.3343 16.8067C74.2803 15.5966 76.2262 14.2521 78.2392 12.8403L78.9773 12.3697C79.447 12.0336 80.0509 12.1681 80.3864 12.6387C80.7219 13.1092 80.5877 13.7143 80.118 14.0504L79.3799 14.521C77.3669 15.9328 75.421 17.2773 73.4079 18.5546C73.2066 18.6218 73.0053 18.6891 72.8711 18.6891ZM238.609 18.0168C238.475 18.0168 238.408 18.0168 238.274 17.9496C235.858 17.1429 233.51 16.0672 230.893 14.4538C230.423 14.1849 230.222 13.5798 230.557 13.042C230.826 12.5714 231.43 12.3697 231.966 12.7059C234.516 14.2521 236.73 15.2605 239.012 16C239.549 16.2017 239.817 16.7395 239.616 17.2773C239.414 17.7479 239.012 18.0168 238.609 18.0168ZM139.904 17.8824C139.77 17.8824 139.569 17.8151 139.435 17.7479C136.952 16.4034 134.671 14.8571 132.591 13.4454C132.121 13.1092 131.987 12.5042 132.322 12.0336C132.658 11.563 133.262 11.4286 133.731 11.7647C135.811 13.1765 138.026 14.6555 140.441 16C140.911 16.2689 141.112 16.8739 140.844 17.3445C140.643 17.6807 140.307 17.8824 139.904 17.8824ZM30.5308 14.8571C30.3966 14.8571 30.1953 14.7899 30.0611 14.7227C28.1822 13.7815 25.6995 12.5042 22.8813 11.4286C22.3445 11.2269 22.0761 10.6218 22.2774 10.1513C22.4787 9.61345 23.0826 9.34454 23.5523 9.54622C26.4376 10.6891 28.9874 11.9664 30.9334 12.9748C31.4031 13.2437 31.6044 13.8487 31.336 14.3193C31.2018 14.7227 30.8663 14.8571 30.5308 14.8571ZM269.61 14.8571C269.207 14.8571 268.872 14.6555 268.67 14.2521C268.469 13.7143 268.67 13.1765 269.207 12.9076C271.421 11.9664 273.837 10.958 276.722 9.94958C277.259 9.7479 277.796 10.0168 277.997 10.5546C278.198 11.0924 277.93 11.6303 277.393 11.8319C274.575 12.7731 272.159 13.8487 270.012 14.7227C269.878 14.8571 269.744 14.8571 269.61 14.8571ZM182.245 13.042C181.909 13.042 181.641 12.9076 181.44 12.6387C181.104 12.1681 181.238 11.563 181.708 11.2269C183.922 9.68067 186.137 8.20168 188.552 6.85714C189.022 6.58823 189.626 6.78992 189.894 7.2605C190.163 7.73109 189.961 8.33613 189.492 8.60504C187.143 9.88235 184.996 11.2941 182.849 12.8403C182.647 12.9748 182.446 13.042 182.245 13.042ZM226.8 11.8319C226.598 11.8319 226.397 11.7647 226.263 11.6975C224.183 10.3529 221.901 8.94118 219.419 7.79832C218.882 7.59664 218.68 6.9916 218.949 6.45378C219.15 5.91597 219.754 5.71428 220.291 5.98319C222.841 7.19328 225.189 8.60504 227.336 10.0168C227.806 10.2857 227.94 10.958 227.672 11.4286C227.471 11.6975 227.135 11.8319 226.8 11.8319ZM83.8756 11.1597C83.5401 11.1597 83.2046 11.0252 83.0033 10.6891C82.6678 10.2185 82.802 9.61345 83.2717 9.27731C85.8886 7.59664 88.1029 6.31933 90.3173 5.2437C90.8541 4.97479 91.3909 5.2437 91.6593 5.71428C91.9277 6.18487 91.6593 6.78992 91.1896 7.05882C89.0423 8.06723 86.8951 9.27731 84.3453 10.958C84.2782 11.0924 84.0769 11.1597 83.8756 11.1597ZM128.766 10.6218C128.565 10.6218 128.363 10.5546 128.229 10.4874C125.612 8.80672 123.532 7.59664 121.385 6.58823C120.848 6.38655 120.647 5.78151 120.915 5.2437C121.183 4.70588 121.72 4.5042 122.257 4.77311C124.471 5.78151 126.619 6.9916 129.37 8.80672C129.839 9.14286 129.974 9.7479 129.638 10.2185C129.37 10.4874 129.101 10.6218 128.766 10.6218ZM282.157 10.4202C281.688 10.4202 281.285 10.1513 281.218 9.68067C281.084 9.14286 281.419 8.60504 281.956 8.47059C284.506 7.79832 287.056 7.19328 289.874 6.78992C290.411 6.72269 290.948 7.05882 291.015 7.59664C291.082 8.13445 290.746 8.67227 290.21 8.7395C287.525 9.21008 284.976 9.7479 282.493 10.4202C282.292 10.3529 282.225 10.4202 282.157 10.4202ZM18.1843 9.81513C18.1172 9.81513 17.983 9.81513 17.9159 9.7479C15.4332 9.07563 12.8833 8.60504 10.1993 8.26891C9.66252 8.20168 9.25992 7.73109 9.32702 7.12605C9.39412 6.58823 9.86382 6.18487 10.4677 6.2521C13.2859 6.58823 15.9029 7.05882 18.4527 7.79832C18.9895 7.93277 19.325 8.47059 19.1237 9.0084C19.0566 9.54622 18.654 9.81513 18.1843 9.81513ZM295.242 8C294.705 8 294.303 7.59664 294.236 7.12605C294.168 6.58823 294.571 6.05042 295.108 5.98319C297.456 5.71428 300.207 5.57983 303.16 5.44538C303.764 5.44538 304.166 5.84874 304.166 6.45378C304.166 6.9916 303.764 7.46218 303.16 7.46218C300.275 7.52941 297.591 7.73109 295.242 8C295.309 8 295.242 8 295.242 8ZM316.58 7.59664C316.513 7.59664 316.513 7.59664 316.58 7.59664C313.829 7.46218 311.145 7.39496 308.595 7.39496C308.058 7.39496 307.589 6.92437 307.589 6.38655C307.589 5.84874 308.058 5.37815 308.595 5.37815C311.212 5.37815 313.896 5.44538 316.647 5.57983C317.184 5.57983 317.654 6.05042 317.586 6.65546C317.519 7.12605 317.117 7.59664 316.58 7.59664ZM193.853 6.65546C193.451 6.65546 193.048 6.38655 192.914 5.98319C192.713 5.44538 193.048 4.90756 193.518 4.70588C196.068 3.83193 198.684 3.29412 201.57 3.02521C202.107 2.95798 202.643 3.36134 202.643 3.96639C202.643 4.57143 202.308 5.04202 201.704 5.04202C199.02 5.31092 196.537 5.78151 194.122 6.58823C194.122 6.58823 193.987 6.65546 193.853 6.65546ZM214.856 6.05042C214.789 6.05042 214.654 6.05042 214.587 5.98319C212.172 5.31092 209.689 4.90756 206.938 4.84033C206.401 4.84033 205.931 4.36975 205.998 3.7647C205.998 3.22689 206.468 2.7563 207.072 2.82353C209.957 2.95798 212.641 3.36134 215.191 4.03361C215.728 4.16807 216.064 4.70588 215.862 5.2437C215.728 5.78151 215.325 6.05042 214.856 6.05042ZM95.8195 5.2437C95.4169 5.2437 95.0143 4.97479 94.8801 4.57143C94.6788 4.03361 95.0143 3.4958 95.5511 3.29412C98.168 2.42017 100.852 1.94958 103.603 1.68067C104.14 1.61344 104.677 2.01681 104.677 2.62185C104.677 3.22689 104.341 3.69748 103.737 3.69748C101.12 3.89916 98.6377 4.43697 96.155 5.2437C96.0208 5.2437 95.8866 5.2437 95.8195 5.2437ZM116.822 4.84033C116.755 4.84033 116.621 4.84033 116.554 4.77311C114.071 4.10084 111.588 3.69748 108.904 3.56302C108.367 3.56302 107.898 3.09244 107.965 2.48739C107.965 1.94958 108.501 1.47899 109.038 1.54622C111.856 1.68067 114.541 2.08403 117.157 2.82353C117.694 2.95798 118.03 3.56302 117.828 4.10084C117.627 4.57143 117.225 4.84033 116.822 4.84033Z" fill="#FDC635"/>
<path d="M326.31 8.2688C326.242 8.2688 326.242 8.2688 326.175 8.2688C325.102 8.13435 323.693 7.99989 322.216 7.86544C321.68 7.79821 321.277 7.32762 321.277 6.78981C321.344 6.25199 321.814 5.84863 322.351 5.84863C323.894 5.98309 325.303 6.11754 326.377 6.25199C326.913 6.31922 327.316 6.78981 327.249 7.39485C327.249 7.93267 326.779 8.2688 326.31 8.2688Z" fill="#FDC635"/>
<path d="M322.149 14.5882C321.881 14.5882 321.612 14.521 321.411 14.3193C321.008 13.916 321.008 13.3109 321.411 12.9076L327.048 7.26049L321.612 1.81512C321.21 1.41175 321.21 0.806713 321.612 0.403351C322.015 -1.02669e-05 322.619 -1.02669e-05 323.021 0.403351L329.866 7.26049L322.753 14.3865C322.686 14.4538 322.418 14.5882 322.149 14.5882Z" fill="#FDC635"/>
</g>
<path d="M155.981 4.16327C157.032 4.16327 157.885 3.23129 157.885 2.08163C157.885 0.931979 157.032 0 155.981 0C154.929 0 154.077 0.931979 154.077 2.08163C154.077 3.23129 154.929 4.16327 155.981 4.16327Z" fill="#FDC635"/>
<path d="M160.095 6.78314C158.103 6.74473 156.257 4.78586 156.257 4.78586C156.04 4.55541 155.714 4.44018 155.424 4.55541C153.94 4.97791 152.491 7.78178 152.093 8.62679C151.876 9.0877 152.057 9.62543 152.455 9.85588C152.564 9.9327 152.708 9.97111 152.853 9.97111C153.179 9.97111 153.469 9.77907 153.614 9.47179C153.867 8.89565 154.193 8.31951 154.519 7.78178V11.3923L152.491 15.6557C152.274 16.1166 152.455 16.6543 152.853 16.8848C152.962 16.9616 153.107 17 153.252 17C153.577 17 153.867 16.808 154.012 16.5007L156.402 11.5075L158.103 12.8518V15.8093C158.103 16.3086 158.502 16.7311 158.972 16.7311C159.443 16.7311 159.841 16.3086 159.841 15.8093V12.3909C159.841 12.122 159.733 11.8532 159.515 11.6611L157.741 10.24V8.05065C158.465 8.39633 159.262 8.6652 160.131 8.6652C160.602 8.6652 160.964 8.2811 161 7.78178C160.928 7.20565 160.566 6.82155 160.095 6.78314Z" fill="#FDC635"/>
<defs>
<clipPath id="clip0">
<rect width="330" height="24" fill="white"/>
</clipPath>
</defs>
</svg>
