<svg width="17" height="31" viewBox="0 0 17 31" fill="none" xmlns="http://www.w3.org/2000/svg">
<path fill-rule="evenodd" clip-rule="evenodd" d="M16.2748 0.0111021L12.2137 0C7.6629 0 4.71436 2.9945 4.71436 7.63064V11.1467H0.641988C0.472883 11.1462 0.31041 11.2121 0.190106 11.3306C0.0698022 11.4491 0.00149172 11.6105 2.22749e-05 11.779V16.8808C0.0017826 17.0493 0.0702051 17.2103 0.190446 17.3287C0.310686 17.4471 0.472971 17.5134 0.641988 17.5131H4.71436V30.3677C4.71436 30.4507 4.73077 30.533 4.76265 30.6097C4.79452 30.6864 4.84121 30.756 4.9001 30.8147C4.95899 30.8734 5.02892 30.92 5.10587 30.9517C5.18282 30.9835 5.2653 30.9999 5.34859 30.9999H10.6782C10.7615 30.9999 10.844 30.9835 10.9209 30.9517C10.9979 30.92 11.0678 30.8734 11.1267 30.8147C11.1856 30.756 11.2323 30.6864 11.2641 30.6097C11.296 30.533 11.3124 30.4507 11.3124 30.3677V17.5131H16.0746C16.244 17.5137 16.4068 17.4476 16.5277 17.3292C16.6485 17.2109 16.7176 17.0497 16.7199 16.8808V11.779C16.7168 11.6123 16.649 11.4531 16.5307 11.3352C16.4125 11.2173 16.2529 11.1499 16.0857 11.1467H11.3124V8.16327C11.3124 6.7325 11.6574 6.00026 13.5377 6.00026H16.2748C16.4431 6.00026 16.6044 5.93388 16.7233 5.81532C16.8423 5.69675 16.9091 5.53592 16.9091 5.36825V0.632276C16.9067 0.466352 16.8388 0.308008 16.7201 0.191714C16.6013 0.0754191 16.4413 0.0105013 16.2748 0.0111021Z" fill="#3A559F"/>
</svg>
