<svg width="33" height="33" viewBox="0 0 33 33" fill="none" xmlns="http://www.w3.org/2000/svg">
<path d="M7.3135 19.9426L6.16481 24.2308L1.9664 24.3196C0.711691 21.9924 0 19.3298 0 16.5003C0 13.7642 0.665414 11.184 1.84491 8.91211H1.84581L5.58357 9.59737L7.22094 13.3127C6.87824 14.3118 6.69146 15.3843 6.69146 16.5003C6.69159 17.7115 6.91099 18.872 7.3135 19.9426Z" fill="#FBBB00"/>
<path d="M32.7118 13.4175C32.9012 14.4156 33.0001 15.4464 33.0001 16.4999C33.0001 17.6812 32.8759 18.8335 32.6392 19.945C31.836 23.7273 29.7372 27.03 26.8298 29.3672L26.8289 29.3663L22.121 29.1261L21.4547 24.9666C23.3839 23.8352 24.8916 22.0646 25.6858 19.945H16.8628V13.4175H25.8145H32.7118Z" fill="#518EF8"/>
<path d="M26.8288 29.3664L26.8297 29.3673C24.0021 31.6401 20.4101 33 16.5 33C10.2164 33 4.75332 29.4879 1.96643 24.3194L7.31353 19.9424C8.70694 23.6612 12.2943 26.3085 16.5 26.3085C18.3077 26.3085 20.0013 25.8198 21.4545 24.9667L26.8288 29.3664Z" fill="#28B446"/>
<path d="M27.0318 3.79861L21.6866 8.17472C20.1825 7.23461 18.4047 6.69152 16.4999 6.69152C12.1991 6.69152 8.54456 9.46024 7.22095 13.3124L1.84575 8.91181H1.84485C4.59094 3.6173 10.123 0 16.4999 0C20.5034 0 24.1742 1.42609 27.0318 3.79861Z" fill="#F14336"/>
</svg>
