<svg width="34" height="27" viewBox="0 0 34 27" fill="none" xmlns="http://www.w3.org/2000/svg">
<path fill-rule="evenodd" clip-rule="evenodd" d="M32.8872 0.491853C31.5233 1.28674 30.033 1.84505 28.4803 2.14245C27.8265 1.46223 27.0401 0.921286 26.1689 0.553007C25.2978 0.184728 24.3603 -0.00325205 23.4135 0.000331833C21.5922 -0.016215 19.8386 0.685413 18.5375 1.95155C17.2364 3.2177 16.494 4.94498 16.4731 6.75417C16.471 7.27429 16.5304 7.79265 16.6499 8.29903C13.9051 8.17107 11.2169 7.47772 8.75628 6.26265C6.29568 5.04758 4.11644 3.33759 2.35671 1.24114C1.73731 2.2663 1.41131 3.43986 1.41399 4.63549C1.41779 5.75473 1.70196 6.85548 2.24092 7.83837C2.77988 8.82127 3.55668 9.65546 4.50122 10.2657C3.40072 10.2223 2.32464 9.93011 1.35501 9.41124V9.49297C1.36797 11.067 1.92903 12.5883 2.94286 13.7981C3.95669 15.0079 5.3609 15.8318 6.91686 16.1299C6.32083 16.2862 5.70683 16.3648 5.09038 16.364C4.65128 16.3623 4.21335 16.3191 3.78245 16.2351C4.23931 17.5894 5.10813 18.7697 6.26901 19.6126C7.42988 20.4554 8.82554 20.9193 10.2633 20.9405C7.79104 22.8204 4.76301 23.8367 1.6496 23.8317C1.09841 23.83 0.547837 23.7989 4.60287e-05 23.7382C3.18284 25.7272 6.86841 26.7783 10.6286 26.7696C13.2019 26.8147 15.7584 26.3508 18.1494 25.4051C20.5405 24.4594 22.7184 23.0509 24.5562 21.2612C26.394 19.4715 27.8552 17.3365 28.8546 14.9806C29.8539 12.6247 30.3715 10.0948 30.3774 7.53832L30.3539 6.66044C31.7073 5.71037 32.8801 4.5294 33.8182 3.17236C32.5508 3.72068 31.2086 4.07952 29.8354 4.23741C31.278 3.39974 32.3631 2.06793 32.8872 0.491853Z" fill="#03A9F4"/>
</svg>
