<svg width="39" height="23" viewBox="0 0 39 23" fill="none" xmlns="http://www.w3.org/2000/svg">
<path d="M38.5324 20.7486C38.5044 20.6614 38.4485 20.5742 38.3926 20.487C37.3579 18.7718 36.0996 17.231 34.6176 15.8646L34.5897 15.8356L34.5617 15.8065L34.5338 15.7774L34.5058 15.7774C33.9466 15.2251 33.4153 14.6727 32.9119 14.0622C32.7162 13.8296 32.5764 13.5389 32.5484 13.2482C32.4925 12.9575 32.5205 12.6377 32.6323 12.347C33.1356 11.3877 33.7229 10.4574 34.4219 9.61433C34.9532 8.88755 35.4006 8.27705 35.7082 7.84098C38.0011 4.64315 38.9798 2.57909 38.6722 1.70695L38.5603 1.50346C38.3926 1.32903 38.1968 1.21275 37.9452 1.1546C37.5257 1.03832 37.1063 1.03832 36.6869 1.09647L30.9825 1.12553C30.8427 1.09646 30.7029 1.09646 30.5911 1.12553C30.4233 1.1546 30.3394 1.18368 30.3394 1.18368L30.2276 1.24182L30.1437 1.29996C30.0598 1.3581 29.9759 1.41625 29.92 1.50346C29.8361 1.61975 29.7802 1.73603 29.7242 1.85231C29.137 3.4803 28.438 5.05015 27.5991 6.56185C27.1237 7.40491 26.6763 8.16077 26.2569 8.80034C25.9493 9.29455 25.6138 9.75968 25.2223 10.1958C24.9986 10.4574 24.7469 10.69 24.4673 10.9225C24.4114 10.9807 24.3275 11.0388 24.2436 11.097C24.1597 11.126 24.0479 11.1551 23.964 11.1551C23.8521 11.126 23.7403 11.097 23.6284 11.0679C23.4327 10.9516 23.2929 10.7772 23.1811 10.5737C23.0692 10.312 22.9853 10.0504 22.9574 9.75968C22.9294 9.4399 22.9014 9.14919 22.9014 8.91662C22.9014 8.68405 22.9014 8.3352 22.9014 7.9282C22.9014 7.49213 22.9294 7.20142 22.9294 7.05606C22.9294 6.53278 22.9294 5.95135 22.9574 5.34085C22.9853 4.73036 22.9853 4.20709 23.0133 3.85823C23.0133 3.50938 23.0412 3.10237 23.0412 2.72445C23.0412 2.40466 23.0133 2.08488 22.9574 1.7651C22.9014 1.53253 22.8455 1.32904 22.7616 1.09647C22.6777 0.892967 22.5379 0.718537 22.3422 0.602252C22.1464 0.456896 21.9227 0.369682 21.6711 0.31154C20.8042 0.137112 19.9095 0.0499006 19.0147 0.0499006C17.4208 -0.0954554 15.827 0.0789665 14.289 0.544106C14.0094 0.689462 13.7577 0.922035 13.534 1.18368C13.3103 1.47439 13.2544 1.64882 13.4222 1.67789C13.7577 1.70696 14.0653 1.79417 14.3449 1.93953C14.6246 2.08488 14.8762 2.31745 15.0999 2.57909L15.2118 2.84074C15.3516 3.13145 15.4355 3.45123 15.4914 3.80008C15.5753 4.29429 15.6592 4.81757 15.6592 5.34085C15.7151 6.21299 15.7151 7.08513 15.6592 7.95726C15.6033 8.68404 15.5194 9.2364 15.4634 9.6434C15.4355 9.99225 15.3236 10.312 15.1838 10.6318C15.0999 10.7772 15.044 10.9516 14.9601 11.097C14.9322 11.126 14.9042 11.1842 14.8483 11.2132C14.6805 11.2714 14.4848 11.3005 14.317 11.3005C14.0653 11.2714 13.8416 11.1842 13.6459 11.0097C13.3383 10.7772 13.0587 10.5155 12.835 10.1958C12.4715 9.75968 12.1639 9.26547 11.8843 8.77126C11.5207 8.16077 11.1572 7.43399 10.7658 6.59092L10.4582 5.98042C10.2625 5.57343 9.98282 5.02108 9.64727 4.26523C9.31172 3.50937 9.00413 2.81167 8.75247 2.11396C8.66859 1.85232 8.50083 1.61974 8.27713 1.44531L8.16527 1.38718C8.05342 1.32904 7.96954 1.27089 7.85769 1.21275C7.71788 1.15461 7.5501 1.09646 7.41028 1.06739L1.9856 1.12553C1.78986 1.09646 1.56616 1.12553 1.37043 1.18368C1.17469 1.24182 1.00692 1.3581 0.867107 1.50346L0.783206 1.61974C0.727281 1.73603 0.727295 1.85232 0.727295 1.9686C0.727295 2.1721 0.783209 2.34653 0.839134 2.52095C1.62208 4.4978 2.48892 6.38742 3.41167 8.18984C4.33443 10.0213 5.14534 11.504 5.8444 12.6087C6.54346 13.7424 7.21455 14.789 7.94158 15.7774C8.64063 16.7658 9.11599 17.4054 9.36765 17.6671C9.59135 17.9578 9.78709 18.1613 9.89894 18.3066L10.4023 18.8008C10.8497 19.2369 11.2971 19.6439 11.8004 19.9927C12.4435 20.487 13.1426 20.9521 13.8416 21.3882C14.6525 21.8533 15.5194 22.2312 16.4421 22.4929C17.3649 22.7836 18.3436 22.8999 19.3223 22.8417L21.5872 22.8417C21.9787 22.8417 22.3701 22.6673 22.6218 22.3766L22.7057 22.2894C22.7616 22.1731 22.8175 22.0277 22.8455 21.9114C22.9014 21.737 22.9294 21.5335 22.9294 21.33C22.9014 20.7777 22.9573 20.2253 23.0692 19.702C23.1251 19.3241 23.237 18.9753 23.4047 18.6264C23.5166 18.3938 23.6564 18.1903 23.8242 18.0159C23.936 17.8996 24.0479 17.8124 24.1597 17.7252C24.2157 17.6961 24.2716 17.6671 24.3275 17.6671C24.5232 17.638 24.719 17.638 24.9147 17.6961C25.1105 17.7543 25.2782 17.8705 25.446 17.9868C25.8934 18.3357 26.3128 18.7427 26.6484 19.1787C27.0119 19.673 27.4873 20.1962 27.9906 20.8067C28.41 21.3009 28.8854 21.737 29.3607 22.144L29.7522 22.4057C30.0878 22.5801 30.4233 22.7545 30.7868 22.8708C31.1503 22.9871 31.5138 23.0452 31.9053 22.958L36.9665 22.8999C37.358 22.9289 37.7774 22.8417 38.1409 22.6382C38.3646 22.5219 38.5324 22.3184 38.6442 22.0568C38.7001 21.8242 38.7001 21.5917 38.6442 21.3591C38.6442 21.1265 38.5883 20.9521 38.5324 20.7486Z" fill="#436EAB"/>
</svg>
